<?xml version="1.0" encoding="utf-8"?>
<!-- Generator: Adobe Illustrator 27.1.1, SVG Export Plug-In . SVG Version: 6.00 Build 0)  -->
<svg version="1.1" id="레이어_1" xmlns="http://www.w3.org/2000/svg" xmlns:xlink="http://www.w3.org/1999/xlink" x="0px"
	 y="0px" viewBox="0 0 350 120" style="enable-background:new 0 0 350 120;" xml:space="preserve">
<style type="text/css">
	.st0{enable-background:new    ;}
</style>
<g class="st0">
	<path d="M43.8,11.7l2.4,13.1h-2c-0.3-0.6-0.6-1.3-1-2c-0.4-0.7-0.7-1.4-1.1-2.1c-0.3-0.6-0.7-1.3-1.2-2c-0.5-0.7-0.9-1.3-1.3-1.8
		c-0.5-0.5-1-0.9-1.6-1.3c-0.6-0.4-1.2-0.7-1.8-0.9c-0.5-0.2-1.1-0.3-1.8-0.5c-0.7-0.1-1.4-0.2-1.9-0.2h-1.1c-0.3,0-0.7,0-1.1,0.1
		c-0.4,0-0.8,0.1-1,0.2c-0.3,0.1-0.6,0.3-0.9,0.5c-0.3,0.2-0.6,0.4-0.8,0.7c-0.2,0.2-0.4,0.6-0.5,1c-0.1,0.4-0.2,0.8-0.2,1.3v39.5
		c0,0.3,0,0.6,0.1,1c0.1,0.4,0.1,0.7,0.2,0.9c0.1,0.2,0.3,0.5,0.5,0.7c0.2,0.2,0.3,0.4,0.4,0.5c0.2,0.1,0.5,0.3,0.7,0.4
		c0.2,0.1,0.5,0.2,0.8,0.3c0.4,0,1,0.1,1.9,0.2c0.9,0.1,1.5,0.1,1.9,0.1v2.4H15.3v-2.4c0.3,0,1,0,1.9-0.1c0.9-0.1,1.6-0.1,1.9-0.2
		c0.3-0.1,0.6-0.2,0.8-0.3c0.3-0.1,0.5-0.2,0.7-0.4c0.1-0.1,0.2-0.3,0.4-0.5c0.2-0.2,0.3-0.5,0.4-0.7c0.1-0.2,0.2-0.5,0.2-0.9
		c0-0.4,0.1-0.7,0.1-1V17.7c0-0.4-0.1-0.9-0.2-1.3c-0.1-0.4-0.3-0.7-0.5-1c-0.2-0.2-0.4-0.5-0.8-0.7c-0.3-0.2-0.6-0.4-1-0.5
		c-0.3-0.1-0.6-0.2-1-0.2c-0.4,0-0.8-0.1-1.1-0.1h-1.1c-0.5,0-1.2,0.1-1.9,0.2c-0.7,0.1-1.4,0.3-1.8,0.5c-0.6,0.2-1.2,0.6-1.8,0.9
		C10,16,9.5,16.5,9,16.9c-0.4,0.5-0.9,1.1-1.3,1.8c-0.4,0.7-0.8,1.4-1.2,2c-0.3,0.7-0.7,1.4-1.1,2.1c-0.4,0.7-0.7,1.4-1,2h-2
		l2.4-13.1H43.8z"/>
	<path d="M84.4,35.3V18.1c0-0.3,0-0.7-0.1-1c0-0.4-0.1-0.6-0.2-0.8c-0.1-0.2-0.2-0.5-0.4-0.8c-0.2-0.3-0.3-0.4-0.4-0.5
		c-0.2-0.1-0.5-0.3-0.7-0.4c-0.2-0.1-0.5-0.2-0.7-0.3c-0.3-0.1-0.9-0.2-1.6-0.2c-0.7,0-1.2-0.1-1.6-0.1v-2.4h16.4v2.4
		c-0.3,0-0.9,0-1.5,0.1c-0.7,0-1.2,0.1-1.6,0.2c-0.2,0-0.4,0.1-0.7,0.3c-0.3,0.1-0.5,0.3-0.8,0.4c0,0-0.2,0.2-0.4,0.5
		c-0.2,0.3-0.4,0.5-0.5,0.8c0,0.2-0.1,0.5-0.2,0.8c-0.1,0.4-0.1,0.7-0.1,1v39.2c0,0.3,0,0.6,0.1,1c0.1,0.4,0.1,0.7,0.2,0.9
		c0.1,0.2,0.3,0.5,0.5,0.7s0.3,0.4,0.4,0.5c0.2,0.1,0.5,0.3,0.8,0.4c0.3,0.1,0.5,0.2,0.7,0.3c0.4,0,0.9,0.1,1.6,0.2
		c0.7,0.1,1.2,0.1,1.5,0.1v2.4H78.7v-2.4c0.3,0,0.9,0,1.6-0.1c0.7-0.1,1.2-0.1,1.6-0.2c0.2-0.1,0.5-0.2,0.7-0.3
		c0.2-0.1,0.5-0.2,0.7-0.4c0.1-0.1,0.2-0.3,0.4-0.5c0.2-0.2,0.3-0.5,0.4-0.7c0.1-0.2,0.2-0.5,0.2-0.9c0-0.4,0.1-0.7,0.1-1V37.7H59.8
		v19.6c0,0.3,0,0.6,0.1,1c0.1,0.4,0.1,0.7,0.2,0.9c0.1,0.2,0.3,0.5,0.5,0.7s0.3,0.4,0.4,0.5c0.2,0.1,0.5,0.3,0.8,0.4
		c0.3,0.1,0.5,0.2,0.7,0.3c0.4,0,0.9,0.1,1.6,0.2c0.7,0.1,1.2,0.1,1.5,0.1v2.4H49.2v-2.4c0.3,0,0.9,0,1.6-0.1
		c0.7-0.1,1.2-0.1,1.6-0.2c0.2-0.1,0.5-0.2,0.7-0.3c0.2-0.1,0.5-0.2,0.7-0.4c0.1-0.1,0.2-0.3,0.4-0.5c0.2-0.2,0.3-0.5,0.4-0.7
		c0.1-0.2,0.2-0.5,0.2-0.9c0-0.4,0.1-0.7,0.1-1V18.1c0-0.3,0-0.7-0.1-1c0-0.4-0.1-0.6-0.2-0.8c-0.1-0.2-0.2-0.5-0.4-0.8
		C54,15.2,53.9,15,53.8,15c-0.2-0.1-0.5-0.3-0.7-0.4c-0.2-0.1-0.5-0.2-0.7-0.3c-0.3-0.1-0.9-0.2-1.6-0.2c-0.7,0-1.2-0.1-1.6-0.1
		v-2.4h16.4v2.4c-0.3,0-0.9,0-1.5,0.1c-0.7,0-1.2,0.1-1.6,0.2c-0.2,0-0.4,0.1-0.7,0.3c-0.3,0.1-0.5,0.3-0.8,0.4c0,0-0.2,0.2-0.4,0.5
		c-0.2,0.3-0.4,0.5-0.5,0.8c0,0.2-0.1,0.5-0.2,0.8c-0.1,0.4-0.1,0.7-0.1,1v17.2H84.4z"/>
	<path d="M119.2,35.3c0.4,0,0.8,0,1.4-0.1c0.5-0.1,0.9-0.1,1.2-0.2c0.2-0.1,0.5-0.2,0.8-0.4c0.3-0.2,0.5-0.4,0.7-0.8
		c0.2-0.3,0.4-0.7,0.6-1.3c0.2-0.6,0.3-1.1,0.3-1.5c0.1-0.4,0.2-0.9,0.2-1.6c0-0.7,0.1-1.3,0.1-1.8h2.3v18.6h-2.3c0-0.4,0-1-0.1-1.9
		c0-0.9-0.1-1.6-0.2-2c0-0.5-0.2-1-0.4-1.6c-0.2-0.6-0.4-1.1-0.6-1.4c-0.2-0.3-0.5-0.6-0.8-0.8c-0.4-0.2-0.7-0.4-0.9-0.4
		c-0.3-0.1-0.7-0.2-1.2-0.2c-0.5,0-0.9-0.1-1.3-0.1h-7.8v19.7c0,0.5,0.1,1,0.4,1.5c0.2,0.6,0.5,0.9,0.6,1.1c0.4,0.3,0.8,0.5,1.3,0.6
		c0.5,0.1,1,0.3,1.4,0.4c0.4,0,1,0.1,1.8,0.1c0.8,0,1.4,0.1,1.9,0.1h1.9c1,0,2.2-0.1,3.5-0.2c1.3-0.1,2.4-0.3,3.2-0.5
		c0.8-0.2,1.6-0.5,2.2-0.9c0.7-0.4,1.3-0.7,1.8-1.1c0.5-0.4,1-1,1.5-1.6c0.5-0.6,1-1.4,1.5-2.2c0.4-0.7,0.8-1.4,1.1-2.3
		c0.4-0.9,0.7-1.7,0.9-2.4h1.7l-1.7,13.6h-35.7v-2.4c0.3,0,0.9,0,1.6-0.1c0.7-0.1,1.2-0.1,1.6-0.2c0.2-0.1,0.5-0.2,0.7-0.3
		c0.2-0.1,0.5-0.2,0.7-0.4c0.1-0.1,0.2-0.3,0.4-0.5c0.2-0.2,0.3-0.5,0.4-0.7c0.1-0.2,0.2-0.5,0.2-0.9c0-0.4,0.1-0.7,0.1-1V18.1
		c0-0.3,0-0.7-0.1-1c0-0.4-0.1-0.6-0.2-0.8c-0.1-0.2-0.2-0.5-0.4-0.8c-0.2-0.3-0.3-0.4-0.4-0.5c-0.2-0.1-0.5-0.3-0.7-0.4
		c-0.2-0.1-0.5-0.2-0.7-0.3c-0.3-0.1-0.9-0.2-1.6-0.2c-0.7,0-1.2-0.1-1.6-0.1v-2.4h35.4l1.4,13.6h-1.9c-0.3-0.8-0.6-1.7-1-2.5
		c-0.4-0.9-0.8-1.7-1.2-2.4c-0.3-0.5-0.8-1.2-1.5-2c-0.7-0.8-1.3-1.4-1.9-1.9c-0.6-0.4-1.5-0.8-2.5-1.2c-1-0.4-1.9-0.6-2.6-0.7
		c-0.6-0.1-1.4-0.2-2.3-0.3c-0.9-0.1-1.8-0.1-2.6-0.1h-2c-0.6,0-1.4,0-2.3,0.1c-0.9,0.1-1.5,0.2-1.9,0.3c-0.3,0.1-0.7,0.3-1,0.5
		c-0.3,0.2-0.6,0.4-0.8,0.7c-0.2,0.2-0.4,0.6-0.5,1c-0.1,0.4-0.2,0.8-0.2,1.3v17.5H119.2z"/>
	<path d="M195.9,46.7c0-0.3,0-0.6-0.1-1c0-0.4-0.1-0.6-0.2-0.8c-0.1-0.2-0.3-0.5-0.5-0.8c-0.2-0.3-0.4-0.4-0.5-0.5
		c-0.2-0.1-0.4-0.3-0.7-0.4c-0.3-0.1-0.6-0.2-0.9-0.3c-0.3-0.1-0.9-0.2-1.7-0.2c-0.8,0-1.4-0.1-1.7-0.1v-2.3h16.4v2.3
		c-0.3,0-0.8,0-1.4,0.1c-0.6,0-1.1,0.1-1.5,0.2c-0.2,0-0.4,0.1-0.6,0.3c-0.2,0.1-0.5,0.3-0.7,0.4c0,0-0.2,0.2-0.3,0.5
		c-0.2,0.3-0.3,0.5-0.4,0.8c0,0.2-0.1,0.5-0.2,0.8c-0.1,0.4-0.1,0.7-0.1,1v17.7h-2.4c-0.1-0.3-0.2-0.6-0.3-1c-0.1-0.4-0.3-0.7-0.4-1
		c-0.1-0.3-0.3-0.7-0.5-1c-0.2-0.3-0.3-0.5-0.3-0.5c-0.4,0-0.9,0.2-1.6,0.6c-0.7,0.3-1.3,0.6-1.8,0.9c-0.5,0.2-1,0.5-1.6,0.8
		c-0.6,0.3-1.1,0.5-1.7,0.7c-0.6,0.2-1.4,0.4-2.4,0.6s-1.8,0.3-2.3,0.3c-1.1,0-2.4-0.1-3.7-0.4c-1.4-0.3-2.7-0.7-3.9-1.2
		c-1.3-0.6-2.6-1.3-3.9-2.2c-1.2-0.9-2.4-1.8-3.4-2.9c-1-1-1.8-2.1-2.7-3.5c-0.8-1.4-1.5-2.8-2.1-4.4c-0.6-1.5-1.1-3.4-1.5-5.5
		c-0.4-2.2-0.6-4.2-0.6-6c0-2.3,0.1-4.4,0.4-6.5c0.3-2.1,0.6-4,1.1-5.8c0.4-1.4,1-3,1.9-4.8c0.9-1.8,1.7-3.2,2.4-4.1
		c0.7-1,1.7-1.9,2.9-3c1.2-1,2.5-1.8,4-2.4c1.1-0.5,2.5-0.9,4.1-1.3c1.7-0.4,3.3-0.5,4.9-0.5c0.7,0,1.6,0.1,2.8,0.4
		c1.2,0.2,2.1,0.5,2.8,0.7c0.7,0.2,1.4,0.5,2.1,0.7c0.7,0.2,1.3,0.4,1.6,0.4c0.6,0,1.3-0.2,2.3-0.6c1-0.4,1.6-0.7,1.9-0.9l4,12.9
		l-1.7,0.7c-0.6-1-1.3-2-2-3c-0.7-1-1.4-1.9-2.1-2.6c-0.8-0.9-1.5-1.7-2.2-2.4c-0.7-0.7-1.3-1.2-1.8-1.5c-1.1-0.6-2.3-1.1-3.9-1.5
		s-2.8-0.6-3.9-0.6c-1.2,0-2.5,0.2-3.9,0.7c-1.4,0.5-2.6,1-3.6,1.7c-0.5,0.3-1.3,1-2.3,2.1c-1,1.1-1.8,1.9-2.3,2.7
		c-0.6,0.9-1.3,2.2-1.9,3.8c-0.7,1.6-1.1,3-1.4,4.1c-0.3,1.6-0.6,3.3-0.8,5c-0.2,1.8-0.3,3.6-0.3,5.7c0,1.9,0.2,3.9,0.5,6
		c0.3,2.1,0.7,3.8,1.2,5.2c0.5,1.3,1,2.6,1.7,3.7c0.6,1.2,1.3,2.1,2.1,3c0.7,0.8,1.5,1.5,2.4,2.2c0.9,0.7,1.8,1.3,2.7,1.8
		c1,0.4,2,0.8,3.1,1.1c1.1,0.3,2.1,0.5,3,0.5c0.7,0,1.4-0.1,2.1-0.2c0.7-0.1,1.4-0.3,2-0.6c0.5-0.2,1.1-0.4,1.6-0.7s1-0.6,1.3-0.9
		c0.5-0.4,0.9-0.8,1.3-1.3c0.4-0.5,0.7-1,1-1.6c0.2-0.5,0.4-1.2,0.6-1.9c0.2-0.7,0.3-1.4,0.3-2V46.7z"/>
	<path d="M221.7,44.3l-4.1,13.1c-0.1,0.4-0.2,0.8-0.3,1.2c-0.1,0.4-0.1,0.8-0.1,1c0,0.2,0.1,0.5,0.2,0.7c0.1,0.2,0.3,0.4,0.5,0.5
		c0.2,0.2,0.5,0.3,0.9,0.4c0.3,0.1,0.6,0.1,0.9,0.2c0.3,0,0.7,0.1,1.2,0.1c0.5,0,1,0,1.7,0v2.2h-14.3v-2.2c0.5,0,0.9,0,1.4-0.1
		c0.4,0,0.8-0.1,1.1-0.1c0.3-0.1,0.7-0.2,1-0.4c0.4-0.2,0.7-0.3,0.9-0.5c0.2-0.2,0.5-0.5,0.6-0.8c0.2-0.3,0.4-0.6,0.6-0.9
		c0.1-0.2,0.3-0.5,0.4-0.9c0.1-0.3,0.3-0.7,0.4-1.1l14.7-46.2h3.3l15.3,46.9c0.1,0.3,0.3,0.7,0.6,1.2c0.2,0.5,0.5,0.8,0.6,1.1
		c0.2,0.3,0.5,0.6,0.8,0.8c0.3,0.2,0.6,0.5,0.9,0.6c0.3,0.1,0.8,0.2,1.3,0.3s1,0.1,1.5,0.1v2.2h-15.7v-2.2c0.4,0,1.1,0,1.9-0.1
		c0.8,0,1.4-0.1,1.7-0.1c0.3-0.1,0.7-0.2,1-0.4c0.3-0.2,0.5-0.5,0.5-1c0-0.3,0-0.6-0.1-1.1c-0.1-0.4-0.2-0.9-0.4-1.4l-4.2-13.1
		H221.7z M230.1,18l-7.5,23.8h15.1L230.1,18z"/>
	<path d="M280.1,57.3c0,0.3,0,0.6,0.1,1c0.1,0.4,0.1,0.7,0.2,0.9c0.1,0.2,0.3,0.5,0.5,0.7s0.3,0.4,0.4,0.5c0.2,0.1,0.5,0.3,0.7,0.4
		c0.2,0.1,0.5,0.2,0.8,0.3c0.4,0,1,0.1,1.7,0.2c0.8,0.1,1.3,0.1,1.7,0.1v2.4h-17v-2.4c0.3,0,0.9,0,1.7-0.1c0.8-0.1,1.4-0.1,1.7-0.2
		c0.3-0.1,0.6-0.2,0.8-0.3c0.3-0.1,0.5-0.2,0.7-0.4c0.1-0.1,0.2-0.3,0.4-0.5c0.2-0.2,0.3-0.5,0.4-0.7c0.1-0.2,0.2-0.5,0.2-0.9
		c0-0.4,0.1-0.7,0.1-1V42.9L261.6,17c-0.3-0.4-0.6-0.8-1-1.3c-0.4-0.5-0.8-0.8-1.3-1c-0.5-0.2-1.2-0.4-2.1-0.5
		c-0.9-0.1-1.6-0.1-2.2-0.1v-2.4h17.6v2.4c-0.8,0-1.7,0-2.7,0.1c-1,0.1-1.6,0.2-1.9,0.3c-0.2,0.1-0.5,0.2-0.7,0.4
		c-0.2,0.2-0.3,0.4-0.3,0.6c0,0.2,0,0.4,0.1,0.8c0.1,0.3,0.2,0.7,0.4,1l11.3,21.8l11.8-21.9c0.2-0.3,0.3-0.6,0.5-0.9
		c0.1-0.3,0.2-0.6,0.2-0.8c0-0.2-0.1-0.4-0.2-0.6c-0.1-0.2-0.3-0.3-0.6-0.4c-0.3-0.1-1-0.2-2.1-0.3c-1.1-0.1-2.1-0.1-3-0.1v-2.4
		h15.6v2.4c-0.6,0-1.4,0-2.2,0.1c-0.9,0.1-1.6,0.3-2.1,0.5c-0.5,0.2-0.9,0.5-1.3,1c-0.4,0.5-0.8,0.9-1.1,1.3l-14.3,26.1V57.3z"/>
	<path d="M315.3,44.3l-4.1,13.1c-0.1,0.4-0.2,0.8-0.3,1.2c-0.1,0.4-0.1,0.8-0.1,1c0,0.2,0.1,0.5,0.2,0.7c0.1,0.2,0.3,0.4,0.5,0.5
		c0.2,0.2,0.5,0.3,0.9,0.4c0.3,0.1,0.6,0.1,0.9,0.2c0.3,0,0.7,0.1,1.2,0.1c0.5,0,1,0,1.7,0v2.2h-14.3v-2.2c0.5,0,0.9,0,1.4-0.1
		c0.4,0,0.8-0.1,1.1-0.1c0.3-0.1,0.7-0.2,1-0.4c0.4-0.2,0.7-0.3,0.9-0.5c0.2-0.2,0.5-0.5,0.6-0.8c0.2-0.3,0.4-0.6,0.6-0.9
		c0.1-0.2,0.3-0.5,0.4-0.9c0.1-0.3,0.3-0.7,0.4-1.1L323,10.5h3.3l15.3,46.9c0.1,0.3,0.3,0.7,0.6,1.2c0.2,0.5,0.5,0.8,0.6,1.1
		c0.2,0.3,0.5,0.6,0.8,0.8c0.3,0.2,0.6,0.5,0.9,0.6c0.3,0.1,0.8,0.2,1.3,0.3s1,0.1,1.5,0.1v2.2h-15.7v-2.2c0.4,0,1.1,0,1.9-0.1
		c0.8,0,1.4-0.1,1.7-0.1c0.3-0.1,0.7-0.2,1-0.4c0.3-0.2,0.5-0.5,0.5-1c0-0.3,0-0.6-0.1-1.1c-0.1-0.4-0.2-0.9-0.4-1.4l-4.2-13.1
		H315.3z M323.7,18l-7.5,23.8h15.1L323.7,18z"/>
</g>
<g class="st0">
	<path d="M69.5,99.6V91c0-0.2,0-0.3,0-0.5c0-0.2-0.1-0.3-0.1-0.4c0-0.1-0.1-0.2-0.2-0.4c-0.1-0.1-0.2-0.2-0.2-0.2
		c-0.1-0.1-0.2-0.1-0.4-0.2s-0.2-0.1-0.4-0.1C68,89,67.8,89,67.4,89c-0.4,0-0.6,0-0.8,0v-1.2h8.2v1.2c-0.2,0-0.4,0-0.8,0
		c-0.3,0-0.6,0.1-0.8,0.1c-0.1,0-0.2,0.1-0.3,0.1c-0.1,0.1-0.3,0.1-0.4,0.2c0,0-0.1,0.1-0.2,0.2s-0.2,0.3-0.2,0.4
		c0,0.1-0.1,0.2-0.1,0.4c0,0.2-0.1,0.4-0.1,0.5v19.6c0,0.1,0,0.3,0.1,0.5c0,0.2,0.1,0.3,0.1,0.4c0,0.1,0.1,0.2,0.2,0.4
		s0.2,0.2,0.2,0.3c0.1,0.1,0.2,0.1,0.4,0.2c0.1,0,0.2,0.1,0.3,0.1c0.2,0,0.5,0.1,0.8,0.1c0.3,0,0.6,0.1,0.8,0.1v1.2h-8.2v-1.2
		c0.2,0,0.4,0,0.8-0.1s0.6-0.1,0.8-0.1c0.1,0,0.2-0.1,0.4-0.1c0.1,0,0.2-0.1,0.4-0.2c0,0,0.1-0.1,0.2-0.3c0.1-0.1,0.2-0.2,0.2-0.4
		c0-0.1,0.1-0.2,0.1-0.4c0-0.2,0-0.4,0-0.5v-9.8H57.2v9.8c0,0.1,0,0.3,0.1,0.5s0.1,0.3,0.1,0.4c0,0.1,0.1,0.2,0.2,0.4
		c0.1,0.1,0.2,0.2,0.2,0.3c0.1,0.1,0.2,0.1,0.4,0.2c0.1,0,0.2,0.1,0.3,0.1c0.2,0,0.5,0.1,0.8,0.1c0.3,0,0.6,0.1,0.8,0.1v1.2h-8.2
		v-1.2c0.2,0,0.4,0,0.8-0.1c0.4,0,0.6-0.1,0.8-0.1c0.1,0,0.2-0.1,0.4-0.1c0.1,0,0.2-0.1,0.4-0.2c0,0,0.1-0.1,0.2-0.3
		c0.1-0.1,0.2-0.2,0.2-0.4c0-0.1,0.1-0.2,0.1-0.4s0-0.4,0-0.5V91c0-0.2,0-0.3,0-0.5s-0.1-0.3-0.1-0.4c0-0.1-0.1-0.2-0.2-0.4
		c-0.1-0.1-0.2-0.2-0.2-0.2c-0.1-0.1-0.2-0.1-0.4-0.2c-0.1-0.1-0.2-0.1-0.4-0.1C53.3,89,53,89,52.7,89c-0.4,0-0.6,0-0.8,0v-1.2h8.2
		v1.2c-0.2,0-0.4,0-0.8,0c-0.3,0-0.6,0.1-0.8,0.1c-0.1,0-0.2,0.1-0.3,0.1c-0.1,0.1-0.3,0.1-0.4,0.2c0,0-0.1,0.1-0.2,0.2
		c-0.1,0.1-0.2,0.3-0.2,0.4c0,0.1-0.1,0.2-0.1,0.4s-0.1,0.4-0.1,0.5v8.6H69.5z"/>
	<path d="M77.7,97.9c0.1-1.1,0.3-2,0.5-2.7c0.2-0.7,0.5-1.4,0.8-2.2c0.3-0.8,0.7-1.4,1.2-2c0.3-0.5,0.8-0.9,1.2-1.4
		c0.5-0.4,1.1-0.9,1.7-1.3c0.5-0.3,1.3-0.6,2.3-0.8c1-0.3,1.8-0.4,2.6-0.4c0.8,0,1.6,0.1,2.6,0.4c1,0.3,1.7,0.5,2.2,0.8
		c0.6,0.4,1.2,0.8,1.7,1.3c0.5,0.4,0.9,0.9,1.2,1.4c0.4,0.6,0.8,1.2,1.2,2c0.3,0.8,0.6,1.5,0.8,2.2c0.2,0.7,0.4,1.7,0.5,2.7
		c0.1,1.1,0.2,2,0.2,2.8c0,0.8-0.1,1.8-0.2,2.8c-0.1,1.1-0.3,2-0.5,2.7c-0.2,0.7-0.5,1.4-0.8,2.2c-0.3,0.8-0.7,1.4-1.2,2
		c-0.3,0.5-0.8,0.9-1.2,1.4c-0.5,0.5-1.1,0.9-1.7,1.3c-0.5,0.3-1.3,0.6-2.2,0.8c-1,0.3-1.8,0.4-2.6,0.4c-0.7,0-1.6-0.1-2.6-0.4
		c-1-0.3-1.7-0.5-2.3-0.8c-0.6-0.4-1.2-0.8-1.7-1.3c-0.5-0.5-0.9-0.9-1.2-1.4c-0.4-0.6-0.8-1.2-1.2-2c-0.3-0.8-0.6-1.5-0.8-2.2
		c-0.2-0.7-0.4-1.7-0.5-2.7c-0.1-1.1-0.2-2-0.2-2.8C77.5,99.9,77.6,99,77.7,97.9z M80.3,103c0.1,1,0.2,1.8,0.3,2.5
		c0.1,0.6,0.3,1.2,0.6,1.9c0.3,0.7,0.5,1.3,0.8,1.7c0.3,0.4,0.6,0.9,1.1,1.4c0.4,0.5,0.9,0.9,1.2,1.2c0.4,0.3,1,0.6,1.8,0.8
		c0.8,0.2,1.4,0.3,1.8,0.3c0.5,0,1.1-0.1,1.9-0.3c0.8-0.2,1.4-0.5,1.8-0.8c0.4-0.3,0.8-0.7,1.3-1.2c0.4-0.5,0.8-1,1-1.4
		c0.3-0.5,0.5-1,0.8-1.7c0.3-0.7,0.5-1.3,0.6-1.9c0.1-0.7,0.3-1.5,0.3-2.5c0.1-1,0.1-1.8,0.1-2.3c0-0.6,0-1.3-0.1-2.3
		c-0.1-1-0.2-1.8-0.3-2.5c-0.1-0.6-0.3-1.2-0.6-1.9c-0.3-0.7-0.5-1.3-0.8-1.7c-0.3-0.4-0.6-0.9-1-1.4c-0.4-0.5-0.9-0.9-1.3-1.2
		c-0.4-0.3-1-0.6-1.8-0.8c-0.8-0.2-1.4-0.3-1.9-0.3c-0.5,0-1.1,0.1-1.8,0.3c-0.8,0.2-1.4,0.5-1.8,0.8c-0.4,0.3-0.8,0.7-1.2,1.2
		c-0.4,0.5-0.8,1-1.1,1.4c-0.3,0.5-0.5,1-0.8,1.7c-0.3,0.7-0.5,1.3-0.6,1.9c-0.1,0.7-0.3,1.5-0.3,2.5c-0.1,1-0.1,1.8-0.1,2.3
		C80.2,101.3,80.2,102,80.3,103z"/>
	<path d="M120.7,87.8l1.2,6.6h-1c-0.1-0.3-0.3-0.6-0.5-1c-0.2-0.4-0.4-0.7-0.6-1c-0.2-0.3-0.4-0.6-0.6-1c-0.2-0.3-0.5-0.6-0.7-0.9
		c-0.2-0.2-0.5-0.5-0.8-0.6c-0.3-0.2-0.6-0.3-0.9-0.5c-0.2-0.1-0.5-0.2-0.9-0.2c-0.4-0.1-0.7-0.1-1-0.1h-0.5c-0.2,0-0.4,0-0.6,0
		c-0.2,0-0.4,0.1-0.5,0.1c-0.2,0-0.3,0.1-0.5,0.2c-0.1,0.1-0.3,0.2-0.4,0.3c-0.1,0.1-0.2,0.3-0.3,0.5c-0.1,0.2-0.1,0.4-0.1,0.6v19.8
		c0,0.1,0,0.3,0.1,0.5s0.1,0.3,0.1,0.4c0,0.1,0.1,0.2,0.2,0.4c0.1,0.1,0.2,0.2,0.2,0.3c0.1,0.1,0.2,0.1,0.4,0.2
		c0.1,0,0.3,0.1,0.4,0.1c0.2,0,0.5,0.1,1,0.1c0.5,0,0.8,0.1,0.9,0.1v1.2h-8.9v-1.2c0.2,0,0.5,0,1-0.1c0.5,0,0.8-0.1,1-0.1
		c0.1,0,0.3-0.1,0.4-0.1c0.1,0,0.2-0.1,0.3-0.2c0,0,0.1-0.1,0.2-0.3c0.1-0.1,0.2-0.2,0.2-0.4c0-0.1,0.1-0.2,0.1-0.4s0-0.4,0-0.5
		V90.8c0-0.2,0-0.4-0.1-0.6c-0.1-0.2-0.2-0.4-0.3-0.5c-0.1-0.1-0.2-0.2-0.4-0.3c-0.2-0.1-0.3-0.2-0.5-0.2c-0.1,0-0.3-0.1-0.5-0.1
		c-0.2,0-0.4,0-0.6,0h-0.5c-0.3,0-0.6,0-1,0.1c-0.4,0.1-0.7,0.1-0.9,0.2c-0.3,0.1-0.6,0.3-0.9,0.5c-0.3,0.2-0.6,0.4-0.8,0.6
		c-0.2,0.2-0.4,0.5-0.6,0.9c-0.2,0.3-0.4,0.7-0.6,1c-0.2,0.3-0.3,0.7-0.5,1c-0.2,0.4-0.4,0.7-0.5,1h-1l1.2-6.6H120.7z"/>
	<path d="M132.8,99.6c0.2,0,0.4,0,0.7-0.1c0.3,0,0.5-0.1,0.6-0.1c0.1,0,0.3-0.1,0.4-0.2s0.3-0.2,0.4-0.4c0.1-0.1,0.2-0.4,0.3-0.6
		c0.1-0.3,0.1-0.5,0.2-0.8c0-0.2,0.1-0.5,0.1-0.8c0-0.3,0-0.7,0-0.9h1.2v9.3h-1.2c0-0.2,0-0.5,0-1c0-0.5-0.1-0.8-0.1-1
		c0-0.2-0.1-0.5-0.2-0.8c-0.1-0.3-0.2-0.5-0.3-0.7c-0.1-0.1-0.2-0.3-0.4-0.4c-0.2-0.1-0.3-0.2-0.5-0.2c-0.1,0-0.3-0.1-0.6-0.1
		c-0.3,0-0.5,0-0.7,0h-3.9v9.9c0,0.2,0.1,0.5,0.2,0.8c0.1,0.3,0.2,0.5,0.3,0.6c0.2,0.1,0.4,0.3,0.6,0.3c0.2,0.1,0.5,0.1,0.7,0.2
		c0.2,0,0.5,0,0.9,0.1c0.4,0,0.7,0,0.9,0h0.9c0.5,0,1.1,0,1.7-0.1c0.7-0.1,1.2-0.1,1.6-0.2c0.4-0.1,0.8-0.3,1.1-0.5
		c0.3-0.2,0.6-0.4,0.9-0.6c0.2-0.2,0.5-0.5,0.8-0.8c0.3-0.3,0.5-0.7,0.8-1.1c0.2-0.3,0.4-0.7,0.6-1.2c0.2-0.4,0.3-0.8,0.5-1.2h0.9
		l-0.9,6.8h-17.9v-1.2c0.2,0,0.4,0,0.8-0.1c0.4,0,0.6-0.1,0.8-0.1c0.1,0,0.2-0.1,0.4-0.1c0.1,0,0.2-0.1,0.4-0.2c0,0,0.1-0.1,0.2-0.3
		c0.1-0.1,0.2-0.2,0.2-0.4c0-0.1,0.1-0.2,0.1-0.4s0-0.4,0-0.5V91c0-0.2,0-0.3,0-0.5s-0.1-0.3-0.1-0.4c0-0.1-0.1-0.2-0.2-0.4
		c-0.1-0.1-0.2-0.2-0.2-0.2c-0.1-0.1-0.2-0.1-0.4-0.2c-0.1-0.1-0.2-0.1-0.4-0.1c-0.2,0-0.4-0.1-0.8-0.1c-0.4,0-0.6,0-0.8,0v-1.2
		h17.7l0.7,6.8h-1c-0.1-0.4-0.3-0.8-0.5-1.3c-0.2-0.4-0.4-0.8-0.6-1.2c-0.2-0.3-0.4-0.6-0.8-1c-0.3-0.4-0.6-0.7-0.9-0.9
		c-0.3-0.2-0.7-0.4-1.2-0.6c-0.5-0.2-0.9-0.3-1.3-0.4c-0.3,0-0.7-0.1-1.1-0.1c-0.4,0-0.9-0.1-1.3-0.1h-1c-0.3,0-0.7,0-1.2,0.1
		c-0.5,0-0.8,0.1-0.9,0.1c-0.2,0-0.3,0.1-0.5,0.2c-0.2,0.1-0.3,0.2-0.4,0.3c-0.1,0.1-0.2,0.3-0.3,0.5c-0.1,0.2-0.1,0.4-0.1,0.6v8.7
		H132.8z"/>
	<path d="M149.5,110.6c0,0.2,0.1,0.5,0.2,0.8c0.1,0.3,0.2,0.5,0.3,0.6c0.2,0.1,0.4,0.3,0.6,0.3c0.2,0.1,0.5,0.1,0.7,0.2
		c0.2,0,0.5,0,0.9,0.1c0.4,0,0.7,0,0.9,0h0.9c0.5,0,1.1,0,1.7-0.1c0.6-0.1,1.1-0.1,1.5-0.2c0.4-0.1,0.8-0.3,1.1-0.4
		c0.4-0.2,0.7-0.4,1-0.6c0.3-0.3,0.6-0.5,0.8-0.8c0.3-0.3,0.5-0.6,0.7-1.1c0.2-0.3,0.4-0.8,0.6-1.3c0.2-0.5,0.4-1,0.5-1.3h0.9
		l-0.9,7.1h-17.8v-1.2c0.2,0,0.4,0,0.8-0.1c0.4,0,0.6-0.1,0.8-0.1c0.1,0,0.2-0.1,0.4-0.1c0.1,0,0.2-0.1,0.4-0.2c0,0,0.1-0.1,0.2-0.3
		c0.1-0.1,0.2-0.2,0.2-0.4c0-0.1,0.1-0.2,0.1-0.4s0-0.4,0-0.5V91c0-0.2,0-0.3,0-0.5s-0.1-0.3-0.1-0.4c0-0.1-0.1-0.2-0.2-0.4
		c-0.1-0.1-0.2-0.2-0.2-0.2c-0.1-0.1-0.2-0.1-0.4-0.2c-0.1-0.1-0.2-0.1-0.4-0.1c-0.2,0-0.4-0.1-0.8-0.1c-0.4,0-0.6,0-0.8,0v-1.2h8.2
		v1.2c-0.2,0-0.4,0-0.8,0c-0.3,0-0.6,0.1-0.8,0.1c-0.1,0-0.2,0.1-0.3,0.1c-0.1,0.1-0.3,0.1-0.4,0.2c0,0-0.1,0.1-0.2,0.2
		c-0.1,0.1-0.2,0.3-0.2,0.4c0,0.1-0.1,0.2-0.1,0.4s-0.1,0.4-0.1,0.5V110.6z"/>
	<path d="M198.7,110.4c-0.2,0.3-0.4,0.7-0.6,1c-0.2,0.3-0.4,0.6-0.7,0.9c-0.2,0.2-0.4,0.4-0.6,0.6c-0.2,0.2-0.5,0.3-0.8,0.5
		c-0.2,0.1-0.5,0.2-0.9,0.3c-0.4,0.1-0.7,0.1-1.1,0.1c-0.3,0-0.6,0-0.8-0.1c-0.3,0-0.6-0.1-0.9-0.3c-0.2-0.1-0.5-0.2-0.7-0.4
		c-0.2-0.2-0.5-0.4-0.8-0.6c-0.2-0.2-0.4-0.4-0.6-0.6c-0.2-0.2-0.4-0.4-0.6-0.6c-0.2,0.2-0.5,0.4-0.7,0.6c-0.2,0.2-0.5,0.3-0.8,0.5
		c-0.4,0.2-0.7,0.4-1.1,0.6c-0.4,0.2-0.8,0.3-1.2,0.4c-0.4,0.1-0.9,0.2-1.4,0.3c-0.5,0.1-1,0.1-1.4,0.1c-0.6,0-1.2,0-1.7-0.1
		c-0.5-0.1-1-0.2-1.4-0.3s-0.8-0.3-1.1-0.5s-0.6-0.4-0.9-0.6c-0.3-0.3-0.6-0.6-0.8-0.8c-0.2-0.3-0.4-0.5-0.5-0.8
		c-0.2-0.4-0.3-0.9-0.5-1.4c-0.1-0.5-0.2-1-0.2-1.5c0-0.5,0.1-0.9,0.2-1.4c0.1-0.5,0.2-0.9,0.4-1.2c0.2-0.4,0.4-0.7,0.6-1
		c0.2-0.3,0.5-0.6,0.8-0.9c0.3-0.3,0.7-0.6,1-0.8c0.3-0.2,0.6-0.5,1-0.7c0.3-0.2,0.7-0.5,1-0.6c0.3-0.2,0.7-0.4,1.1-0.6
		c-0.2-0.3-0.4-0.5-0.6-0.8c-0.2-0.3-0.3-0.5-0.5-0.8c-0.2-0.4-0.4-0.7-0.5-1c-0.2-0.3-0.3-0.7-0.4-1.1s-0.2-0.8-0.3-1.2
		s-0.1-0.8-0.1-1.2c0-0.6,0.1-1.1,0.2-1.5c0.1-0.5,0.3-0.9,0.5-1.2c0.2-0.3,0.5-0.6,0.7-0.9c0.3-0.2,0.6-0.5,0.9-0.7
		c0.3-0.2,0.7-0.3,1.1-0.4c0.4-0.1,0.8-0.1,1.2-0.1c0.4,0,0.8,0,1.1,0.1s0.7,0.2,1,0.4c0.4,0.2,0.8,0.5,1.1,0.7
		c0.3,0.2,0.5,0.6,0.7,1c0.2,0.4,0.4,0.8,0.5,1.3c0.1,0.5,0.2,0.9,0.2,1.3c0,0.5-0.1,1-0.2,1.5c-0.1,0.5-0.3,0.9-0.5,1.3
		c-0.3,0.5-0.5,0.9-0.8,1.2s-0.5,0.6-0.8,0.8c-0.3,0.3-0.6,0.6-1,0.8c-0.3,0.2-0.7,0.4-1,0.6l5.8,8.6c0.3-0.3,0.5-0.5,0.6-0.7
		c0.2-0.2,0.3-0.5,0.5-0.7c0.3-0.4,0.5-0.8,0.8-1.2c0.2-0.4,0.4-0.8,0.6-1.1c0.2-0.5,0.4-0.9,0.6-1.4s0.2-0.8,0.2-1
		c0-0.3-0.1-0.6-0.2-0.9c-0.1-0.3-0.2-0.5-0.4-0.6c-0.2-0.2-0.5-0.3-0.8-0.5c-0.3-0.1-0.7-0.2-1.1-0.2v-0.9h7.3v0.9
		c-0.5,0-1,0.2-1.3,0.4c-0.4,0.2-0.7,0.4-0.9,0.7c-0.3,0.3-0.5,0.7-0.7,1.2c-0.2,0.5-0.4,0.9-0.6,1.3c-0.2,0.4-0.3,0.8-0.5,1.1
		s-0.3,0.7-0.5,1c-0.2,0.4-0.5,0.8-0.7,1.2c-0.2,0.3-0.5,0.7-0.7,1c-0.2,0.3-0.5,0.6-0.7,0.8c-0.2,0.3-0.4,0.5-0.7,0.7
		c0.1,0.2,0.3,0.4,0.4,0.6c0.2,0.2,0.3,0.4,0.5,0.6c0.2,0.2,0.4,0.3,0.6,0.5s0.4,0.3,0.6,0.4c0.2,0.1,0.4,0.2,0.6,0.3
		c0.2,0.1,0.4,0.1,0.6,0.1c0.3,0,0.5-0.1,0.8-0.2c0.3-0.1,0.5-0.3,0.8-0.5c0.2-0.2,0.5-0.4,0.8-0.8c0.3-0.4,0.6-0.8,0.8-1.1
		L198.7,110.4z M178.4,108.3c0.1,0.4,0.2,0.8,0.4,1.2c0.1,0.2,0.3,0.5,0.5,0.8s0.3,0.5,0.5,0.6c0.2,0.2,0.5,0.4,0.8,0.6
		c0.3,0.2,0.5,0.4,0.8,0.5c0.3,0.1,0.7,0.3,1.1,0.4s0.8,0.1,1.2,0.1c0.4,0,0.8,0,1.2-0.1c0.4,0,0.8-0.2,1.1-0.3
		c0.3-0.1,0.5-0.2,0.8-0.4c0.3-0.1,0.6-0.3,0.8-0.4c0.2-0.2,0.5-0.3,0.7-0.5s0.4-0.3,0.6-0.5l-6.1-9c-0.4,0.2-0.7,0.4-1,0.6
		c-0.3,0.2-0.6,0.4-0.9,0.6c-0.3,0.2-0.6,0.5-0.9,0.8c-0.3,0.3-0.5,0.6-0.7,0.9c-0.2,0.4-0.5,0.8-0.6,1.4c-0.2,0.5-0.3,1-0.3,1.2
		C178.3,107.4,178.3,107.8,178.4,108.3z M181.7,95.1c0.1,0.3,0.1,0.6,0.3,0.9c0.1,0.3,0.2,0.6,0.4,0.9c0.1,0.3,0.3,0.6,0.5,1
		c0.1,0.3,0.3,0.5,0.4,0.8c0.1,0.2,0.3,0.5,0.5,0.7c0.3-0.2,0.6-0.4,0.9-0.6c0.3-0.2,0.6-0.5,0.8-0.7c0.1-0.2,0.3-0.4,0.5-0.7
		c0.2-0.3,0.4-0.6,0.5-0.8c0.1-0.3,0.2-0.6,0.2-0.9c0-0.3,0.1-0.7,0.1-1c0-0.3,0-0.7-0.1-1.2c0-0.5-0.1-0.9-0.3-1.2
		c-0.1-0.3-0.3-0.5-0.4-0.8c-0.2-0.2-0.4-0.4-0.6-0.5c-0.2-0.1-0.4-0.2-0.6-0.3c-0.2-0.1-0.4-0.1-0.6-0.1c-0.3,0-0.5,0-0.8,0.1
		c-0.3,0.1-0.5,0.2-0.7,0.3c-0.2,0.1-0.3,0.3-0.5,0.5c-0.1,0.2-0.3,0.5-0.4,0.7c-0.1,0.2-0.2,0.5-0.3,0.9c-0.1,0.3-0.1,0.7-0.1,1.1
		C181.6,94.5,181.6,94.8,181.7,95.1z"/>
	<path d="M228.8,94.8l-0.8,0.3c-0.3-0.6-0.6-1.2-1-1.7c-0.3-0.6-0.7-1.1-1-1.7c-0.3-0.5-0.7-0.9-1.1-1.4c-0.4-0.4-0.8-0.7-1.1-0.9
		c-0.5-0.4-1.1-0.6-1.7-0.8c-0.6-0.2-1.2-0.3-1.7-0.3c-0.5,0-1,0.1-1.5,0.3c-0.6,0.2-1,0.5-1.4,0.8c-0.2,0.2-0.4,0.5-0.7,0.8
		c-0.2,0.3-0.4,0.7-0.6,1c-0.1,0.3-0.3,0.7-0.3,1.2c-0.1,0.5-0.1,0.8-0.1,1.1c0,0.5,0.1,1,0.3,1.5s0.4,0.9,0.6,1.2
		c0.3,0.4,0.6,0.7,1.1,1c0.5,0.3,1,0.6,1.4,0.8c0.6,0.2,1.1,0.5,1.7,0.7c0.6,0.2,1.1,0.4,1.6,0.6c0.5,0.2,1.1,0.4,1.7,0.6
		c0.6,0.2,1.1,0.5,1.6,0.8c0.6,0.3,1.1,0.6,1.5,1c0.5,0.3,0.9,0.7,1.2,1.2c0.3,0.5,0.6,1.1,0.8,1.9c0.2,0.8,0.3,1.5,0.3,2.2
		c0,0.5-0.1,1.1-0.3,1.9c-0.2,0.8-0.5,1.4-0.8,1.9c-0.3,0.5-0.7,1-1.2,1.4c-0.5,0.5-1,0.8-1.5,1.1c-0.5,0.3-1.1,0.5-1.8,0.7
		s-1.4,0.3-2.1,0.3c-0.4,0-0.9-0.1-1.6-0.2c-0.7-0.1-1.3-0.3-1.9-0.5c-0.5-0.2-0.9-0.3-1.3-0.5c-0.4-0.1-0.6-0.2-0.8-0.2
		c-0.2,0-0.4,0.1-0.8,0.3c-0.4,0.2-0.7,0.4-1,0.6l-2.4-7.7l0.9-0.3c0.6,1.1,1.2,2.1,1.9,3.1s1.5,1.8,2.2,2.4
		c0.6,0.4,1.2,0.8,2.1,1.1c0.8,0.3,1.6,0.5,2.3,0.5c0.5,0,1-0.1,1.6-0.2s1-0.3,1.3-0.5c0.4-0.2,0.7-0.5,1-0.8
		c0.3-0.4,0.6-0.7,0.9-1.1c0.3-0.4,0.5-0.9,0.6-1.3c0.1-0.5,0.2-1,0.2-1.4c0-0.5-0.1-0.9-0.2-1.4c-0.1-0.5-0.3-0.9-0.5-1.3
		c-0.2-0.4-0.5-0.7-0.8-1s-0.7-0.6-1.1-0.8c-0.3-0.2-0.8-0.4-1.4-0.7s-1.1-0.5-1.4-0.6c-0.5-0.2-1-0.4-1.7-0.8
		c-0.7-0.3-1.3-0.6-1.9-0.8c-0.5-0.2-1-0.6-1.7-1c-0.6-0.4-1.2-0.9-1.6-1.4c-0.4-0.5-0.7-1.1-0.9-1.8c-0.2-0.7-0.3-1.4-0.3-2
		c0-0.5,0-1,0.1-1.5s0.2-1.1,0.4-1.5c0.2-0.5,0.4-0.9,0.6-1.2s0.5-0.7,0.9-1c0.3-0.3,0.7-0.6,1.1-0.8c0.4-0.2,0.9-0.4,1.4-0.6
		c0.3-0.1,0.8-0.2,1.3-0.3s0.9-0.1,1.2-0.1c0.5,0,1,0.1,1.5,0.2c0.6,0.1,1.1,0.3,1.5,0.6c0.4,0.2,0.8,0.4,1.2,0.6
		c0.4,0.2,0.6,0.3,0.7,0.3c0.2,0,0.4-0.1,0.7-0.4c0.3-0.3,0.6-0.5,0.8-0.7L228.8,94.8z"/>
	<path d="M251.5,87.8l1.2,6.6h-1c-0.1-0.3-0.3-0.6-0.5-1c-0.2-0.4-0.4-0.7-0.6-1c-0.2-0.3-0.4-0.6-0.6-1c-0.2-0.3-0.5-0.6-0.7-0.9
		c-0.2-0.2-0.5-0.5-0.8-0.6c-0.3-0.2-0.6-0.3-0.9-0.5c-0.2-0.1-0.5-0.2-0.9-0.2c-0.4-0.1-0.7-0.1-1-0.1h-0.5c-0.2,0-0.4,0-0.6,0
		c-0.2,0-0.4,0.1-0.5,0.1c-0.2,0-0.3,0.1-0.5,0.2c-0.1,0.1-0.3,0.2-0.4,0.3c-0.1,0.1-0.2,0.3-0.3,0.5c-0.1,0.2-0.1,0.4-0.1,0.6v19.8
		c0,0.1,0,0.3,0.1,0.5s0.1,0.3,0.1,0.4c0,0.1,0.1,0.2,0.2,0.4c0.1,0.1,0.2,0.2,0.2,0.3c0.1,0.1,0.2,0.1,0.4,0.2
		c0.1,0,0.3,0.1,0.4,0.1c0.2,0,0.5,0.1,1,0.1c0.5,0,0.8,0.1,0.9,0.1v1.2h-8.9v-1.2c0.2,0,0.5,0,1-0.1s0.8-0.1,1-0.1
		c0.1,0,0.3-0.1,0.4-0.1c0.1,0,0.2-0.1,0.3-0.2c0,0,0.1-0.1,0.2-0.3s0.2-0.2,0.2-0.4c0-0.1,0.1-0.2,0.1-0.4c0-0.2,0-0.4,0-0.5V90.8
		c0-0.2,0-0.4-0.1-0.6c-0.1-0.2-0.2-0.4-0.3-0.5c-0.1-0.1-0.2-0.2-0.4-0.3c-0.2-0.1-0.3-0.2-0.5-0.2c-0.1,0-0.3-0.1-0.5-0.1
		c-0.2,0-0.4,0-0.6,0h-0.5c-0.3,0-0.6,0-1,0.1c-0.4,0.1-0.7,0.1-0.9,0.2c-0.3,0.1-0.6,0.3-0.9,0.5c-0.3,0.2-0.6,0.4-0.8,0.6
		c-0.2,0.2-0.4,0.5-0.6,0.9c-0.2,0.3-0.4,0.7-0.6,1c-0.2,0.3-0.3,0.7-0.5,1c-0.2,0.4-0.4,0.7-0.5,1h-1l1.2-6.6H251.5z"/>
	<path d="M259.8,104.1l-2.1,6.6c0,0.2-0.1,0.4-0.1,0.6s-0.1,0.4-0.1,0.5c0,0.1,0,0.2,0.1,0.3c0.1,0.1,0.2,0.2,0.3,0.2
		c0.1,0.1,0.3,0.2,0.4,0.2s0.3,0.1,0.4,0.1c0.1,0,0.3,0,0.6,0.1c0.2,0,0.5,0,0.8,0v1.1h-7.1v-1.1c0.2,0,0.5,0,0.7,0
		c0.2,0,0.4,0,0.5-0.1c0.2,0,0.3-0.1,0.5-0.2c0.2-0.1,0.3-0.2,0.5-0.3c0.1-0.1,0.2-0.2,0.3-0.4c0.1-0.1,0.2-0.3,0.3-0.5
		c0.1-0.1,0.1-0.3,0.2-0.4s0.1-0.3,0.2-0.5l7.3-23.1h1.7l7.7,23.4c0.1,0.2,0.2,0.4,0.3,0.6c0.1,0.2,0.2,0.4,0.3,0.6
		c0.1,0.1,0.2,0.3,0.4,0.4s0.3,0.2,0.5,0.3c0.2,0.1,0.4,0.1,0.7,0.1c0.3,0,0.5,0,0.7,0v1.1H268v-1.1c0.2,0,0.5,0,0.9,0
		c0.4,0,0.7,0,0.9-0.1c0.2,0,0.3-0.1,0.5-0.2c0.2-0.1,0.3-0.3,0.3-0.5c0-0.1,0-0.3-0.1-0.5c0-0.2-0.1-0.4-0.2-0.7l-2.1-6.6H259.8z
		 M264,90.9l-3.7,11.9h7.6L264,90.9z"/>
	<path d="M289,110.5c0,0.1,0,0.3,0.1,0.5s0.1,0.3,0.1,0.4c0,0.1,0.1,0.2,0.2,0.4c0.1,0.1,0.2,0.2,0.2,0.3c0.1,0.1,0.2,0.1,0.4,0.2
		c0.1,0,0.3,0.1,0.4,0.1c0.2,0,0.5,0.1,0.9,0.1s0.7,0.1,0.8,0.1v1.2h-8.5v-1.2c0.2,0,0.5,0,0.8-0.1c0.4,0,0.7-0.1,0.8-0.1
		c0.1,0,0.3-0.1,0.4-0.1c0.1,0,0.2-0.1,0.3-0.2c0,0,0.1-0.1,0.2-0.3s0.2-0.2,0.2-0.4c0-0.1,0.1-0.2,0.1-0.4c0-0.2,0-0.4,0-0.5v-7.2
		l-6.8-12.9c-0.1-0.2-0.3-0.4-0.5-0.6c-0.2-0.2-0.4-0.4-0.6-0.5c-0.2-0.1-0.6-0.2-1-0.3c-0.4,0-0.8-0.1-1.1-0.1v-1.2h8.8v1.2
		c-0.4,0-0.8,0-1.3,0.1c-0.5,0-0.8,0.1-0.9,0.1c-0.1,0-0.2,0.1-0.3,0.2c-0.1,0.1-0.2,0.2-0.2,0.3c0,0.1,0,0.2,0.1,0.4
		c0,0.2,0.1,0.3,0.2,0.5l5.7,10.9l5.9-10.9c0.1-0.1,0.2-0.3,0.2-0.5c0.1-0.2,0.1-0.3,0.1-0.4c0-0.1,0-0.2-0.1-0.3
		c-0.1-0.1-0.2-0.1-0.3-0.2c-0.1,0-0.5-0.1-1.1-0.1c-0.6,0-1.1-0.1-1.5-0.1v-1.2h7.8v1.2c-0.3,0-0.7,0-1.1,0.1c-0.4,0-0.8,0.1-1,0.3
		c-0.2,0.1-0.5,0.3-0.7,0.5s-0.4,0.4-0.6,0.7l-7.2,13V110.5z"/>
</g>
</svg>
