<?xml version="1.0" encoding="utf-8"?>
<!-- Generator: Adobe Illustrator 27.1.1, SVG Export Plug-In . SVG Version: 6.00 Build 0)  -->
<svg version="1.1" id="레이어_1" xmlns="http://www.w3.org/2000/svg" xmlns:xlink="http://www.w3.org/1999/xlink" x="0px"
	 y="0px" viewBox="0 0 870 72" style="enable-background:new 0 0 870 72;" xml:space="preserve">
<style type="text/css">
	.st0{enable-background:new    ;}
</style>
<g class="st0">
	<path d="M43.5,9.9L45.9,23h-2c-0.3-0.6-0.6-1.3-1-2c-0.4-0.7-0.7-1.4-1.1-2.1c-0.3-0.6-0.7-1.3-1.2-2c-0.5-0.7-0.9-1.3-1.3-1.8
		c-0.5-0.5-1-0.9-1.6-1.3c-0.6-0.4-1.2-0.7-1.8-0.9c-0.5-0.2-1.1-0.3-1.8-0.5c-0.7-0.1-1.4-0.2-1.9-0.2h-1.1c-0.3,0-0.7,0-1.1,0.1
		c-0.4,0-0.8,0.1-1,0.2c-0.3,0.1-0.6,0.3-0.9,0.5c-0.3,0.2-0.6,0.4-0.8,0.7c-0.2,0.2-0.4,0.6-0.5,1c-0.1,0.4-0.2,0.8-0.2,1.3v39.5
		c0,0.3,0,0.6,0.1,1c0.1,0.4,0.1,0.7,0.2,0.9c0.1,0.2,0.3,0.5,0.5,0.7c0.2,0.2,0.3,0.4,0.4,0.5c0.2,0.1,0.5,0.3,0.7,0.4
		c0.2,0.1,0.5,0.2,0.8,0.3c0.4,0,1,0.1,1.9,0.2c0.9,0.1,1.5,0.1,1.9,0.1v2.4H15.1v-2.4c0.3,0,1,0,1.9-0.1c0.9-0.1,1.6-0.1,1.9-0.2
		c0.3-0.1,0.6-0.2,0.8-0.3c0.3-0.1,0.5-0.2,0.7-0.4c0.1-0.1,0.2-0.3,0.4-0.5c0.2-0.2,0.3-0.5,0.4-0.7c0.1-0.2,0.2-0.5,0.2-0.9
		c0-0.4,0.1-0.7,0.1-1V16c0-0.4-0.1-0.9-0.2-1.3c-0.1-0.4-0.3-0.7-0.5-1c-0.2-0.2-0.4-0.5-0.8-0.7c-0.3-0.2-0.6-0.4-1-0.5
		c-0.3-0.1-0.6-0.2-1-0.2c-0.4,0-0.8-0.1-1.1-0.1h-1.1c-0.5,0-1.2,0.1-1.9,0.2c-0.7,0.1-1.4,0.3-1.8,0.5c-0.6,0.2-1.2,0.6-1.8,0.9
		c-0.6,0.4-1.1,0.8-1.6,1.3c-0.4,0.5-0.9,1.1-1.3,1.8c-0.4,0.7-0.8,1.4-1.2,2c-0.3,0.7-0.7,1.4-1.1,2.1c-0.4,0.7-0.7,1.4-1,2h-2
		L4.5,9.9H43.5z"/>
	<path d="M84.2,33.5V16.3c0-0.3,0-0.7-0.1-1c0-0.4-0.1-0.6-0.2-0.8c-0.1-0.2-0.2-0.5-0.4-0.8c-0.2-0.3-0.3-0.4-0.4-0.5
		c-0.2-0.1-0.5-0.3-0.7-0.4c-0.2-0.1-0.5-0.2-0.7-0.3c-0.3-0.1-0.9-0.2-1.6-0.2c-0.7,0-1.2-0.1-1.6-0.1V9.9h16.4v2.4
		c-0.3,0-0.9,0-1.5,0.1c-0.7,0-1.2,0.1-1.6,0.2c-0.2,0-0.4,0.1-0.7,0.3c-0.3,0.1-0.5,0.3-0.8,0.4c0,0-0.2,0.2-0.4,0.5
		c-0.2,0.3-0.4,0.5-0.5,0.8c0,0.2-0.1,0.5-0.2,0.8c-0.1,0.4-0.1,0.7-0.1,1v39.2c0,0.3,0,0.6,0.1,1c0.1,0.4,0.1,0.7,0.2,0.9
		c0.1,0.2,0.3,0.5,0.5,0.7s0.3,0.4,0.4,0.5c0.2,0.1,0.5,0.3,0.8,0.4c0.3,0.1,0.5,0.2,0.7,0.3c0.4,0,0.9,0.1,1.6,0.2
		c0.7,0.1,1.2,0.1,1.5,0.1v2.4H78.5v-2.4c0.3,0,0.9,0,1.6-0.1c0.7-0.1,1.2-0.1,1.6-0.2c0.2-0.1,0.5-0.2,0.7-0.3
		c0.2-0.1,0.5-0.2,0.7-0.4c0.1-0.1,0.2-0.3,0.4-0.5c0.2-0.2,0.3-0.5,0.4-0.7c0.1-0.2,0.2-0.5,0.2-0.9c0-0.4,0.1-0.7,0.1-1V35.9H59.6
		v19.6c0,0.3,0,0.6,0.1,1c0.1,0.4,0.1,0.7,0.2,0.9c0.1,0.2,0.3,0.5,0.5,0.7s0.3,0.4,0.4,0.5c0.2,0.1,0.5,0.3,0.8,0.4
		c0.3,0.1,0.5,0.2,0.7,0.3c0.4,0,0.9,0.1,1.6,0.2c0.7,0.1,1.2,0.1,1.5,0.1v2.4H48.9v-2.4c0.3,0,0.9,0,1.6-0.1
		c0.7-0.1,1.2-0.1,1.6-0.2c0.2-0.1,0.5-0.2,0.7-0.3c0.2-0.1,0.5-0.2,0.7-0.4c0.1-0.1,0.2-0.3,0.4-0.5c0.2-0.2,0.3-0.5,0.4-0.7
		c0.1-0.2,0.2-0.5,0.2-0.9c0-0.4,0.1-0.7,0.1-1V16.3c0-0.3,0-0.7-0.1-1c0-0.4-0.1-0.6-0.2-0.8c-0.1-0.2-0.2-0.5-0.4-0.8
		c-0.2-0.3-0.3-0.4-0.4-0.5c-0.2-0.1-0.5-0.3-0.7-0.4c-0.2-0.1-0.5-0.2-0.7-0.3c-0.3-0.1-0.9-0.2-1.6-0.2c-0.7,0-1.2-0.1-1.6-0.1
		V9.9h16.4v2.4c-0.3,0-0.9,0-1.5,0.1c-0.7,0-1.2,0.1-1.6,0.2c-0.2,0-0.4,0.1-0.7,0.3c-0.3,0.1-0.5,0.3-0.8,0.4c0,0-0.2,0.2-0.4,0.5
		c-0.2,0.3-0.4,0.5-0.5,0.8c0,0.2-0.1,0.5-0.2,0.8c-0.1,0.4-0.1,0.7-0.1,1v17.2H84.2z"/>
	<path d="M119,33.5c0.4,0,0.8,0,1.4-0.1c0.5-0.1,0.9-0.1,1.2-0.2c0.2-0.1,0.5-0.2,0.8-0.4c0.3-0.2,0.5-0.4,0.7-0.8
		c0.2-0.3,0.4-0.7,0.6-1.3c0.2-0.6,0.3-1.1,0.3-1.5c0.1-0.4,0.2-0.9,0.2-1.6c0-0.7,0.1-1.3,0.1-1.8h2.3v18.6h-2.3c0-0.4,0-1-0.1-1.9
		c0-0.9-0.1-1.6-0.2-2c0-0.5-0.2-1-0.4-1.6c-0.2-0.6-0.4-1.1-0.6-1.4c-0.2-0.3-0.5-0.6-0.8-0.8c-0.4-0.2-0.7-0.4-0.9-0.4
		c-0.3-0.1-0.7-0.2-1.2-0.2c-0.5,0-0.9-0.1-1.3-0.1h-7.8v19.7c0,0.5,0.1,1,0.4,1.5c0.2,0.6,0.5,0.9,0.6,1.1c0.4,0.3,0.8,0.5,1.3,0.6
		c0.5,0.1,1,0.3,1.4,0.4c0.4,0,1,0.1,1.8,0.1c0.8,0,1.4,0.1,1.9,0.1h1.9c1,0,2.2-0.1,3.5-0.2c1.3-0.1,2.4-0.3,3.2-0.5
		c0.8-0.2,1.6-0.5,2.2-0.9c0.7-0.4,1.3-0.7,1.8-1.1c0.5-0.4,1-1,1.5-1.6c0.5-0.6,1-1.4,1.5-2.2c0.4-0.7,0.8-1.4,1.1-2.3
		c0.4-0.9,0.7-1.7,0.9-2.4h1.7l-1.7,13.6h-35.7v-2.4c0.3,0,0.9,0,1.6-0.1c0.7-0.1,1.2-0.1,1.6-0.2c0.2-0.1,0.5-0.2,0.7-0.3
		c0.2-0.1,0.5-0.2,0.7-0.4c0.1-0.1,0.2-0.3,0.4-0.5c0.2-0.2,0.3-0.5,0.4-0.7c0.1-0.2,0.2-0.5,0.2-0.9c0-0.4,0.1-0.7,0.1-1V16.3
		c0-0.3,0-0.7-0.1-1c0-0.4-0.1-0.6-0.2-0.8c-0.1-0.2-0.2-0.5-0.4-0.8c-0.2-0.3-0.3-0.4-0.4-0.5c-0.2-0.1-0.5-0.3-0.7-0.4
		c-0.2-0.1-0.5-0.2-0.7-0.3c-0.3-0.1-0.9-0.2-1.6-0.2c-0.7,0-1.2-0.1-1.6-0.1V9.9h35.4l1.4,13.6h-1.9c-0.3-0.8-0.6-1.7-1-2.5
		c-0.4-0.9-0.8-1.7-1.2-2.4c-0.3-0.5-0.8-1.2-1.5-2c-0.7-0.8-1.3-1.4-1.9-1.9c-0.6-0.4-1.5-0.8-2.5-1.2c-1-0.4-1.9-0.6-2.6-0.7
		c-0.6-0.1-1.4-0.2-2.3-0.3c-0.9-0.1-1.8-0.1-2.6-0.1h-2c-0.6,0-1.4,0-2.3,0.1c-0.9,0.1-1.5,0.2-1.9,0.3c-0.3,0.1-0.7,0.3-1,0.5
		c-0.3,0.2-0.6,0.4-0.8,0.7c-0.2,0.2-0.4,0.6-0.5,1c-0.1,0.4-0.2,0.8-0.2,1.3v17.5H119z"/>
	<path d="M195.7,44.9c0-0.3,0-0.6-0.1-1c0-0.4-0.1-0.6-0.2-0.8c-0.1-0.2-0.3-0.5-0.5-0.8c-0.2-0.3-0.4-0.4-0.5-0.5
		c-0.2-0.1-0.4-0.3-0.7-0.4c-0.3-0.1-0.6-0.2-0.9-0.3c-0.3-0.1-0.9-0.2-1.7-0.2c-0.8,0-1.4-0.1-1.7-0.1v-2.3h16.4v2.3
		c-0.3,0-0.8,0-1.4,0.1c-0.6,0-1.1,0.1-1.5,0.2c-0.2,0-0.4,0.1-0.6,0.3c-0.2,0.1-0.5,0.3-0.7,0.4c0,0-0.2,0.2-0.3,0.5
		c-0.2,0.3-0.3,0.5-0.4,0.8c0,0.2-0.1,0.5-0.2,0.8c-0.1,0.4-0.1,0.7-0.1,1v17.7h-2.4c-0.1-0.3-0.2-0.6-0.3-1c-0.1-0.4-0.3-0.7-0.4-1
		c-0.1-0.3-0.3-0.7-0.5-1c-0.2-0.3-0.3-0.5-0.3-0.5c-0.4,0-0.9,0.2-1.6,0.6c-0.7,0.3-1.3,0.6-1.8,0.9c-0.5,0.2-1,0.5-1.6,0.8
		c-0.6,0.3-1.1,0.5-1.7,0.7c-0.6,0.2-1.4,0.4-2.4,0.6c-1,0.2-1.8,0.3-2.3,0.3c-1.1,0-2.4-0.1-3.7-0.4c-1.4-0.3-2.7-0.7-3.9-1.2
		c-1.3-0.6-2.6-1.3-3.9-2.2c-1.2-0.9-2.4-1.8-3.4-2.9c-1-1-1.8-2.1-2.7-3.5c-0.8-1.4-1.5-2.8-2.1-4.4c-0.6-1.5-1.1-3.4-1.5-5.5
		c-0.4-2.2-0.6-4.2-0.6-6c0-2.3,0.1-4.4,0.4-6.5c0.3-2.1,0.6-4,1.1-5.8c0.4-1.4,1-3,1.9-4.8c0.9-1.8,1.7-3.2,2.4-4.1
		c0.7-1,1.7-1.9,2.9-3c1.2-1,2.5-1.8,4-2.4c1.1-0.5,2.5-0.9,4.1-1.3c1.7-0.4,3.3-0.5,4.9-0.5c0.7,0,1.6,0.1,2.8,0.4
		c1.2,0.2,2.1,0.5,2.8,0.7c0.7,0.2,1.4,0.5,2.1,0.7c0.7,0.2,1.3,0.4,1.6,0.4c0.6,0,1.3-0.2,2.3-0.6c1-0.4,1.6-0.7,1.9-0.9l4,12.9
		l-1.7,0.7c-0.6-1-1.3-2-2-3c-0.7-1-1.4-1.9-2.1-2.6c-0.8-0.9-1.5-1.7-2.2-2.4c-0.7-0.7-1.3-1.2-1.8-1.5c-1.1-0.6-2.3-1.1-3.9-1.5
		c-1.5-0.4-2.8-0.6-3.9-0.6c-1.2,0-2.5,0.2-3.9,0.7c-1.4,0.5-2.6,1-3.6,1.7c-0.5,0.3-1.3,1-2.3,2.1c-1,1.1-1.8,1.9-2.3,2.7
		c-0.6,0.9-1.3,2.2-1.9,3.8c-0.7,1.6-1.1,3-1.4,4.1c-0.3,1.6-0.6,3.3-0.8,5c-0.2,1.8-0.3,3.6-0.3,5.7c0,1.9,0.2,3.9,0.5,6
		c0.3,2.1,0.7,3.8,1.2,5.2c0.5,1.3,1,2.6,1.7,3.7c0.6,1.2,1.3,2.1,2.1,3c0.7,0.8,1.5,1.5,2.4,2.2c0.9,0.7,1.8,1.3,2.7,1.8
		c1,0.4,2,0.8,3.1,1.1c1.1,0.3,2.1,0.5,3,0.5c0.7,0,1.4-0.1,2.1-0.2c0.7-0.1,1.4-0.3,2-0.6c0.5-0.2,1.1-0.4,1.6-0.7
		c0.5-0.3,1-0.6,1.3-0.9c0.5-0.4,0.9-0.8,1.3-1.3c0.4-0.5,0.7-1,1-1.6c0.2-0.5,0.4-1.2,0.6-1.9c0.2-0.7,0.3-1.4,0.3-2V44.9z"/>
	<path d="M221.5,42.5l-4.1,13.1c-0.1,0.4-0.2,0.8-0.3,1.2c-0.1,0.4-0.1,0.8-0.1,1c0,0.2,0.1,0.5,0.2,0.7s0.3,0.4,0.5,0.5
		c0.2,0.2,0.5,0.3,0.9,0.4c0.3,0.1,0.6,0.1,0.9,0.2c0.3,0,0.7,0.1,1.2,0.1c0.5,0,1,0,1.7,0v2.2h-14.3v-2.2c0.5,0,0.9,0,1.4-0.1
		c0.4,0,0.8-0.1,1.1-0.1c0.3-0.1,0.7-0.2,1-0.4c0.4-0.2,0.7-0.3,0.9-0.5c0.2-0.2,0.5-0.5,0.6-0.8c0.2-0.3,0.4-0.6,0.6-0.9
		c0.1-0.2,0.3-0.5,0.4-0.9c0.1-0.3,0.3-0.7,0.4-1.1l14.7-46.2h3.3l15.3,46.9c0.1,0.3,0.3,0.7,0.6,1.2c0.2,0.5,0.5,0.8,0.6,1.1
		c0.2,0.3,0.5,0.6,0.8,0.8c0.3,0.2,0.6,0.5,0.9,0.6c0.3,0.1,0.8,0.2,1.3,0.3c0.6,0,1,0.1,1.5,0.1v2.2h-15.7v-2.2
		c0.4,0,1.1,0,1.9-0.1c0.8,0,1.4-0.1,1.7-0.1c0.3-0.1,0.7-0.2,1-0.4c0.3-0.2,0.5-0.5,0.5-1c0-0.3,0-0.6-0.1-1.1
		c-0.1-0.4-0.2-0.9-0.4-1.4l-4.2-13.1H221.5z M229.9,16.2L222.4,40h15.1L229.9,16.2z"/>
	<path d="M279.8,55.5c0,0.3,0,0.6,0.1,1c0.1,0.4,0.1,0.7,0.2,0.9c0.1,0.2,0.3,0.5,0.5,0.7c0.2,0.2,0.3,0.4,0.4,0.5
		c0.2,0.1,0.5,0.3,0.7,0.4c0.2,0.1,0.5,0.2,0.8,0.3c0.4,0,1,0.1,1.7,0.2c0.8,0.1,1.3,0.1,1.7,0.1v2.4h-17v-2.4c0.3,0,0.9,0,1.7-0.1
		c0.8-0.1,1.4-0.1,1.7-0.2c0.3-0.1,0.6-0.2,0.8-0.3c0.3-0.1,0.5-0.2,0.7-0.4c0.1-0.1,0.2-0.3,0.4-0.5c0.2-0.2,0.3-0.5,0.4-0.7
		c0.1-0.2,0.2-0.5,0.2-0.9c0-0.4,0.1-0.7,0.1-1V41.1l-13.5-25.8c-0.3-0.4-0.6-0.8-1-1.3c-0.4-0.5-0.8-0.8-1.3-1
		c-0.5-0.2-1.2-0.4-2.1-0.5c-0.9-0.1-1.6-0.1-2.2-0.1V9.9h17.6v2.4c-0.8,0-1.7,0-2.7,0.1c-1,0.1-1.6,0.2-1.9,0.3
		c-0.2,0.1-0.5,0.2-0.7,0.4c-0.2,0.2-0.3,0.4-0.3,0.6c0,0.2,0,0.4,0.1,0.8c0.1,0.3,0.2,0.7,0.4,1l11.3,21.8l11.8-21.9
		c0.2-0.3,0.3-0.6,0.5-0.9c0.1-0.3,0.2-0.6,0.2-0.8c0-0.2-0.1-0.4-0.2-0.6c-0.1-0.2-0.3-0.3-0.6-0.4c-0.3-0.1-1-0.2-2.1-0.3
		c-1.1-0.1-2.1-0.1-3-0.1V9.9h15.6v2.4c-0.6,0-1.4,0-2.2,0.1c-0.9,0.1-1.6,0.3-2.1,0.5c-0.5,0.2-0.9,0.5-1.3,1
		c-0.4,0.5-0.8,0.9-1.1,1.3l-14.3,26.1V55.5z"/>
	<path d="M315.1,42.5L311,55.6c-0.1,0.4-0.2,0.8-0.3,1.2c-0.1,0.4-0.1,0.8-0.1,1c0,0.2,0.1,0.5,0.2,0.7s0.3,0.4,0.5,0.5
		c0.2,0.2,0.5,0.3,0.9,0.4c0.3,0.1,0.6,0.1,0.9,0.2c0.3,0,0.7,0.1,1.2,0.1c0.5,0,1,0,1.7,0v2.2h-14.3v-2.2c0.5,0,0.9,0,1.4-0.1
		c0.4,0,0.8-0.1,1.1-0.1c0.3-0.1,0.7-0.2,1-0.4c0.4-0.2,0.7-0.3,0.9-0.5c0.2-0.2,0.5-0.5,0.6-0.8c0.2-0.3,0.4-0.6,0.6-0.9
		c0.1-0.2,0.3-0.5,0.4-0.9c0.1-0.3,0.3-0.7,0.4-1.1l14.7-46.2h3.3l15.3,46.9c0.1,0.3,0.3,0.7,0.6,1.2c0.2,0.5,0.5,0.8,0.6,1.1
		c0.2,0.3,0.5,0.6,0.8,0.8c0.3,0.2,0.6,0.5,0.9,0.6c0.3,0.1,0.8,0.2,1.3,0.3c0.6,0,1,0.1,1.5,0.1v2.2h-15.7v-2.2
		c0.4,0,1.1,0,1.9-0.1c0.8,0,1.4-0.1,1.7-0.1c0.3-0.1,0.7-0.2,1-0.4c0.3-0.2,0.5-0.5,0.5-1c0-0.3,0-0.6-0.1-1.1
		c-0.1-0.4-0.2-0.9-0.4-1.4l-4.2-13.1H315.1z M323.5,16.2L316,40h15.1L323.5,16.2z"/>
	<path d="M407.6,33.5V16.3c0-0.3,0-0.7-0.1-1c0-0.4-0.1-0.6-0.2-0.8c-0.1-0.2-0.2-0.5-0.4-0.8c-0.2-0.3-0.3-0.4-0.4-0.5
		c-0.2-0.1-0.5-0.3-0.7-0.4c-0.2-0.1-0.5-0.2-0.7-0.3c-0.3-0.1-0.9-0.2-1.6-0.2c-0.7,0-1.2-0.1-1.6-0.1V9.9h16.4v2.4
		c-0.3,0-0.9,0-1.5,0.1c-0.7,0-1.2,0.1-1.6,0.2c-0.2,0-0.4,0.1-0.7,0.3c-0.3,0.1-0.5,0.3-0.8,0.4c0,0-0.2,0.2-0.4,0.5
		c-0.2,0.3-0.4,0.5-0.5,0.8c0,0.2-0.1,0.5-0.2,0.8c-0.1,0.4-0.1,0.7-0.1,1v39.2c0,0.3,0,0.6,0.1,1c0.1,0.4,0.1,0.7,0.2,0.9
		c0.1,0.2,0.3,0.5,0.5,0.7s0.3,0.4,0.4,0.5c0.2,0.1,0.5,0.3,0.8,0.4c0.3,0.1,0.5,0.2,0.7,0.3c0.4,0,0.9,0.1,1.6,0.2
		c0.7,0.1,1.2,0.1,1.5,0.1v2.4h-16.4v-2.4c0.3,0,0.9,0,1.6-0.1c0.7-0.1,1.2-0.1,1.6-0.2c0.2-0.1,0.5-0.2,0.7-0.3
		c0.2-0.1,0.5-0.2,0.7-0.4c0.1-0.1,0.2-0.3,0.4-0.5c0.2-0.2,0.3-0.5,0.4-0.7c0.1-0.2,0.2-0.5,0.2-0.9c0-0.4,0.1-0.7,0.1-1V35.9H383
		v19.6c0,0.3,0,0.6,0.1,1c0.1,0.4,0.1,0.7,0.2,0.9c0.1,0.2,0.3,0.5,0.5,0.7s0.3,0.4,0.4,0.5c0.2,0.1,0.5,0.3,0.8,0.4
		c0.3,0.1,0.5,0.2,0.7,0.3c0.4,0,0.9,0.1,1.6,0.2c0.7,0.1,1.2,0.1,1.5,0.1v2.4h-16.4v-2.4c0.3,0,0.9,0,1.6-0.1
		c0.7-0.1,1.2-0.1,1.6-0.2c0.2-0.1,0.5-0.2,0.7-0.3c0.2-0.1,0.5-0.2,0.7-0.4c0.1-0.1,0.2-0.3,0.4-0.5c0.2-0.2,0.3-0.5,0.4-0.7
		c0.1-0.2,0.2-0.5,0.2-0.9c0-0.4,0.1-0.7,0.1-1V16.3c0-0.3,0-0.7-0.1-1c0-0.4-0.1-0.6-0.2-0.8c-0.1-0.2-0.2-0.5-0.4-0.8
		c-0.2-0.3-0.3-0.4-0.4-0.5c-0.2-0.1-0.5-0.3-0.7-0.4c-0.2-0.1-0.5-0.2-0.7-0.3c-0.3-0.1-0.9-0.2-1.6-0.2c-0.7,0-1.2-0.1-1.6-0.1
		V9.9h16.4v2.4c-0.3,0-0.9,0-1.5,0.1c-0.7,0-1.2,0.1-1.6,0.2c-0.2,0-0.4,0.1-0.7,0.3c-0.3,0.1-0.5,0.3-0.8,0.4c0,0-0.2,0.2-0.4,0.5
		c-0.2,0.3-0.4,0.5-0.5,0.8c0,0.2-0.1,0.5-0.2,0.8c-0.1,0.4-0.1,0.7-0.1,1v17.2H407.6z"/>
	<path d="M424.1,30.2c0.3-2.1,0.6-3.9,1.1-5.4c0.4-1.3,0.9-2.8,1.6-4.3c0.7-1.5,1.4-2.9,2.3-4c0.7-1,1.5-1.9,2.5-2.8
		c1-0.9,2.1-1.7,3.4-2.6c1.1-0.6,2.6-1.2,4.5-1.7c2-0.5,3.7-0.8,5.2-0.8c1.5,0,3.3,0.3,5.2,0.8c1.9,0.5,3.4,1.1,4.5,1.7
		c1.3,0.8,2.4,1.7,3.4,2.6c1,0.9,1.8,1.8,2.5,2.8c0.9,1.1,1.6,2.4,2.3,4c0.7,1.5,1.2,3,1.6,4.3c0.4,1.5,0.8,3.3,1.1,5.4
		c0.3,2.1,0.4,4,0.4,5.7c0,1.6-0.1,3.5-0.4,5.7c-0.3,2.1-0.6,3.9-1.1,5.4c-0.4,1.3-0.9,2.8-1.6,4.3c-0.7,1.5-1.4,2.9-2.3,4
		c-0.7,0.9-1.5,1.8-2.5,2.7c-1,0.9-2.1,1.8-3.4,2.6c-1.1,0.6-2.6,1.2-4.5,1.7c-1.9,0.5-3.7,0.8-5.2,0.8c-1.5,0-3.2-0.3-5.2-0.8
		c-2-0.5-3.5-1.1-4.5-1.7c-1.3-0.8-2.4-1.7-3.4-2.6c-1-0.9-1.8-1.8-2.5-2.7c-0.9-1.1-1.6-2.4-2.3-4c-0.7-1.5-1.2-3-1.6-4.3
		c-0.4-1.5-0.8-3.3-1.1-5.4c-0.3-2.1-0.4-4-0.4-5.7C423.6,34.3,423.8,32.4,424.1,30.2z M429.3,40.5c0.2,2,0.4,3.7,0.7,5.1
		c0.2,1.2,0.6,2.4,1.2,3.8c0.6,1.4,1.1,2.5,1.6,3.5c0.5,0.9,1.2,1.8,2.1,2.8c0.9,1,1.7,1.8,2.5,2.4c0.9,0.6,2.1,1.2,3.6,1.6
		c1.5,0.5,2.8,0.7,3.7,0.7c1,0,2.2-0.2,3.7-0.7c1.5-0.5,2.7-1,3.6-1.6c0.8-0.6,1.7-1.4,2.5-2.4c0.9-1,1.6-1.9,2.1-2.8
		c0.5-0.9,1.1-2.1,1.6-3.5c0.6-1.4,0.9-2.7,1.2-3.8c0.3-1.4,0.5-3.1,0.7-5.1c0.2-2,0.3-3.5,0.3-4.6c0-1.1-0.1-2.6-0.3-4.6
		c-0.2-2-0.4-3.6-0.7-5c-0.2-1.2-0.6-2.4-1.2-3.8c-0.6-1.4-1.1-2.5-1.6-3.5c-0.5-0.9-1.2-1.8-2.1-2.8c-0.9-1-1.7-1.8-2.5-2.4
		c-0.9-0.7-2.1-1.2-3.6-1.7c-1.5-0.4-2.7-0.6-3.7-0.6c-0.9,0-2.1,0.2-3.7,0.6c-1.5,0.4-2.7,1-3.6,1.7c-0.8,0.6-1.6,1.4-2.5,2.4
		c-0.9,1-1.6,1.9-2.1,2.8c-0.5,0.9-1.1,2.1-1.6,3.5c-0.6,1.4-0.9,2.7-1.2,3.8c-0.3,1.4-0.5,3.1-0.7,5c-0.2,2-0.3,3.5-0.3,4.6
		C429,37,429.1,38.5,429.3,40.5z"/>
	<path d="M510.1,9.9l2.4,13.1h-2c-0.3-0.6-0.6-1.3-1-2c-0.4-0.7-0.7-1.4-1.1-2.1c-0.3-0.6-0.7-1.3-1.2-2c-0.5-0.7-0.9-1.3-1.3-1.8
		c-0.5-0.5-1-0.9-1.6-1.3c-0.6-0.4-1.2-0.7-1.8-0.9c-0.5-0.2-1.1-0.3-1.8-0.5c-0.7-0.1-1.4-0.2-1.9-0.2h-1.1c-0.3,0-0.7,0-1.1,0.1
		c-0.4,0-0.8,0.1-1,0.2c-0.3,0.1-0.6,0.3-0.9,0.5c-0.3,0.2-0.6,0.4-0.8,0.7c-0.2,0.2-0.4,0.6-0.5,1c-0.1,0.4-0.2,0.8-0.2,1.3v39.5
		c0,0.3,0,0.6,0.1,1c0.1,0.4,0.1,0.7,0.2,0.9c0.1,0.2,0.3,0.5,0.5,0.7c0.2,0.2,0.3,0.4,0.4,0.5c0.2,0.1,0.5,0.3,0.7,0.4
		c0.2,0.1,0.5,0.2,0.8,0.3c0.4,0,1,0.1,1.9,0.2c0.9,0.1,1.5,0.1,1.9,0.1v2.4h-17.9v-2.4c0.3,0,1,0,1.9-0.1c0.9-0.1,1.6-0.1,1.9-0.2
		c0.3-0.1,0.6-0.2,0.8-0.3c0.3-0.1,0.5-0.2,0.7-0.4c0.1-0.1,0.2-0.3,0.4-0.5c0.2-0.2,0.3-0.5,0.4-0.7c0.1-0.2,0.2-0.5,0.2-0.9
		c0-0.4,0.1-0.7,0.1-1V16c0-0.4-0.1-0.9-0.2-1.3c-0.1-0.4-0.3-0.7-0.5-1c-0.2-0.2-0.4-0.5-0.8-0.7c-0.3-0.2-0.6-0.4-1-0.5
		c-0.3-0.1-0.6-0.2-1-0.2c-0.4,0-0.8-0.1-1.1-0.1h-1.1c-0.5,0-1.2,0.1-1.9,0.2c-0.7,0.1-1.4,0.3-1.8,0.5c-0.6,0.2-1.2,0.6-1.8,0.9
		c-0.6,0.4-1.1,0.8-1.6,1.3c-0.4,0.5-0.9,1.1-1.3,1.8c-0.4,0.7-0.8,1.4-1.2,2c-0.3,0.7-0.7,1.4-1.1,2.1c-0.4,0.7-0.7,1.4-1,2h-2
		l2.4-13.1H510.1z"/>
	<path d="M534.3,33.5c0.4,0,0.8,0,1.4-0.1c0.5-0.1,0.9-0.1,1.2-0.2c0.2-0.1,0.5-0.2,0.8-0.4c0.3-0.2,0.5-0.4,0.7-0.8
		c0.2-0.3,0.4-0.7,0.6-1.3c0.2-0.6,0.3-1.1,0.3-1.5c0.1-0.4,0.2-0.9,0.2-1.6c0-0.7,0.1-1.3,0.1-1.8h2.3v18.6h-2.3c0-0.4,0-1-0.1-1.9
		c0-0.9-0.1-1.6-0.2-2c0-0.5-0.2-1-0.4-1.6c-0.2-0.6-0.4-1.1-0.6-1.4c-0.2-0.3-0.5-0.6-0.8-0.8c-0.4-0.2-0.7-0.4-0.9-0.4
		c-0.3-0.1-0.7-0.2-1.2-0.2c-0.5,0-0.9-0.1-1.3-0.1h-7.8v19.7c0,0.5,0.1,1,0.4,1.5c0.2,0.6,0.5,0.9,0.6,1.1c0.4,0.3,0.8,0.5,1.3,0.6
		c0.5,0.1,1,0.3,1.4,0.4c0.4,0,1,0.1,1.8,0.1c0.8,0,1.4,0.1,1.9,0.1h1.9c1,0,2.2-0.1,3.5-0.2c1.3-0.1,2.4-0.3,3.2-0.5
		c0.8-0.2,1.6-0.5,2.2-0.9c0.7-0.4,1.3-0.7,1.8-1.1c0.5-0.4,1-1,1.5-1.6c0.5-0.6,1-1.4,1.5-2.2c0.4-0.7,0.8-1.4,1.1-2.3
		c0.4-0.9,0.7-1.7,0.9-2.4h1.7l-1.7,13.6h-35.7v-2.4c0.3,0,0.9,0,1.6-0.1c0.7-0.1,1.2-0.1,1.6-0.2c0.2-0.1,0.5-0.2,0.7-0.3
		c0.2-0.1,0.5-0.2,0.7-0.4c0.1-0.1,0.2-0.3,0.4-0.5c0.2-0.2,0.3-0.5,0.4-0.7c0.1-0.2,0.2-0.5,0.2-0.9c0-0.4,0.1-0.7,0.1-1V16.3
		c0-0.3,0-0.7-0.1-1c0-0.4-0.1-0.6-0.2-0.8c-0.1-0.2-0.2-0.5-0.4-0.8c-0.2-0.3-0.3-0.4-0.4-0.5c-0.2-0.1-0.5-0.3-0.7-0.4
		c-0.2-0.1-0.5-0.2-0.7-0.3c-0.3-0.1-0.9-0.2-1.6-0.2c-0.7,0-1.2-0.1-1.6-0.1V9.9h35.4l1.4,13.6h-1.9c-0.3-0.8-0.6-1.7-1-2.5
		c-0.4-0.9-0.8-1.7-1.2-2.4c-0.3-0.5-0.8-1.2-1.5-2c-0.7-0.8-1.3-1.4-1.9-1.9c-0.6-0.4-1.5-0.8-2.5-1.2c-1-0.4-1.9-0.6-2.6-0.7
		c-0.6-0.1-1.4-0.2-2.3-0.3c-0.9-0.1-1.8-0.1-2.6-0.1h-2c-0.6,0-1.4,0-2.3,0.1c-0.9,0.1-1.5,0.2-1.9,0.3c-0.3,0.1-0.7,0.3-1,0.5
		c-0.3,0.2-0.6,0.4-0.8,0.7c-0.2,0.2-0.4,0.6-0.5,1c-0.1,0.4-0.2,0.8-0.2,1.3v17.5H534.3z"/>
	<path d="M567.6,55.6c0,0.5,0.1,1,0.4,1.5c0.2,0.6,0.5,0.9,0.6,1.1c0.4,0.3,0.8,0.5,1.3,0.6c0.5,0.1,1,0.3,1.4,0.4
		c0.4,0,1,0.1,1.8,0.1s1.4,0.1,1.9,0.1h1.9c1,0,2.1-0.1,3.3-0.2c1.2-0.1,2.2-0.3,3-0.5c0.8-0.2,1.5-0.5,2.3-0.9
		c0.7-0.4,1.4-0.7,1.9-1.1c0.6-0.5,1.1-1.1,1.6-1.7c0.5-0.6,1-1.3,1.5-2.2c0.4-0.7,0.8-1.5,1.2-2.6c0.4-1,0.7-1.9,0.9-2.6h1.8
		l-1.9,14.1H557v-2.4c0.3,0,0.9,0,1.6-0.1c0.7-0.1,1.2-0.1,1.6-0.2c0.2-0.1,0.5-0.2,0.7-0.3c0.2-0.1,0.5-0.2,0.7-0.4
		c0.1-0.1,0.2-0.3,0.4-0.5c0.2-0.2,0.3-0.5,0.4-0.7c0.1-0.2,0.2-0.5,0.2-0.9c0-0.4,0.1-0.7,0.1-1V16.3c0-0.3,0-0.7-0.1-1
		c0-0.4-0.1-0.6-0.2-0.8c-0.1-0.2-0.2-0.5-0.4-0.8c-0.2-0.3-0.3-0.4-0.4-0.5c-0.2-0.1-0.5-0.3-0.7-0.4c-0.2-0.1-0.5-0.2-0.7-0.3
		c-0.3-0.1-0.9-0.2-1.6-0.2c-0.7,0-1.2-0.1-1.6-0.1V9.9h16.4v2.4c-0.3,0-0.9,0-1.5,0.1c-0.7,0-1.2,0.1-1.6,0.2
		c-0.2,0-0.4,0.1-0.7,0.3c-0.3,0.1-0.5,0.3-0.8,0.4c0,0-0.2,0.2-0.4,0.5c-0.2,0.3-0.4,0.5-0.5,0.8c0,0.2-0.1,0.5-0.2,0.8
		c-0.1,0.4-0.1,0.7-0.1,1V55.6z"/>
	<path d="M666,55.2c-0.4,0.7-0.8,1.3-1.2,2c-0.4,0.7-0.9,1.3-1.3,1.8c-0.4,0.4-0.8,0.8-1.2,1.2c-0.4,0.4-0.9,0.7-1.5,1
		c-0.5,0.2-1.1,0.4-1.8,0.6c-0.7,0.2-1.5,0.3-2.2,0.3c-0.6,0-1.1,0-1.7-0.1c-0.6-0.1-1.2-0.3-1.8-0.5c-0.5-0.1-1-0.4-1.4-0.8
		c-0.5-0.4-1-0.8-1.5-1.3c-0.4-0.4-0.8-0.8-1.2-1.1c-0.3-0.3-0.7-0.7-1.2-1.2c-0.5,0.4-0.9,0.8-1.4,1.1c-0.5,0.3-1,0.7-1.6,1
		c-0.7,0.4-1.5,0.8-2.2,1.1c-0.8,0.3-1.5,0.6-2.3,0.8c-0.9,0.2-1.8,0.4-2.8,0.6c-1,0.2-1.9,0.3-2.8,0.3c-1.2,0-2.3-0.1-3.3-0.3
		c-1-0.2-2-0.4-2.8-0.6c-0.8-0.2-1.5-0.6-2.2-0.9c-0.6-0.4-1.2-0.8-1.8-1.2c-0.7-0.6-1.2-1.1-1.6-1.6c-0.4-0.5-0.8-1.1-1-1.7
		c-0.3-0.8-0.6-1.8-0.9-2.8c-0.3-1.1-0.4-2.1-0.4-3.1c0-0.9,0.1-1.9,0.3-2.8c0.2-1,0.5-1.8,0.8-2.5c0.3-0.8,0.7-1.5,1.2-2.1
		c0.5-0.6,1-1.2,1.6-1.8c0.7-0.7,1.3-1.2,2-1.7c0.6-0.5,1.3-0.9,1.9-1.4c0.7-0.5,1.3-0.9,2-1.3c0.7-0.4,1.4-0.8,2.2-1.3
		c-0.4-0.5-0.8-1.1-1.2-1.6c-0.3-0.5-0.6-1.1-0.9-1.7c-0.4-0.7-0.7-1.4-1.1-2.1c-0.3-0.7-0.6-1.4-0.8-2.2c-0.2-0.8-0.4-1.5-0.5-2.3
		c-0.1-0.8-0.2-1.5-0.2-2.3c0-1.1,0.1-2.1,0.4-3.1c0.2-1,0.6-1.8,1.1-2.4c0.4-0.7,0.9-1.2,1.4-1.7c0.5-0.5,1.2-0.9,1.9-1.4
		c0.7-0.4,1.4-0.6,2.2-0.8c0.8-0.1,1.6-0.2,2.4-0.2c0.8,0,1.5,0.1,2.3,0.3c0.7,0.2,1.4,0.4,1.9,0.7c0.9,0.5,1.6,1,2.1,1.4
		c0.6,0.5,1,1.1,1.4,1.9c0.4,0.7,0.8,1.6,1,2.5c0.2,1,0.3,1.8,0.3,2.7c0,1-0.1,2-0.4,2.9c-0.3,0.9-0.6,1.8-1,2.6
		c-0.5,1-1,1.7-1.5,2.3c-0.5,0.6-1.1,1.1-1.7,1.7c-0.6,0.6-1.3,1.2-1.9,1.6c-0.7,0.4-1.3,0.8-2,1.2l11.6,17.2c0.5-0.6,1-1.1,1.3-1.5
		c0.3-0.4,0.7-0.9,1.1-1.5c0.5-0.8,1-1.6,1.5-2.4c0.5-0.9,0.9-1.6,1.2-2.2c0.5-1,0.9-1.9,1.1-2.8c0.3-0.9,0.4-1.5,0.4-1.9
		c0-0.7-0.1-1.3-0.3-1.8c-0.2-0.5-0.5-1-0.8-1.3c-0.4-0.4-0.9-0.7-1.5-0.9c-0.6-0.2-1.4-0.4-2.2-0.4v-1.8h14.5v1.8
		c-1.1,0.1-1.9,0.3-2.7,0.7c-0.7,0.4-1.3,0.9-1.9,1.4c-0.5,0.6-1,1.4-1.4,2.3c-0.4,0.9-0.8,1.8-1.2,2.7c-0.3,0.8-0.7,1.6-1,2.2
		s-0.7,1.3-1,1.9c-0.5,0.9-0.9,1.6-1.4,2.3c-0.5,0.7-0.9,1.4-1.4,2c-0.5,0.6-0.9,1.2-1.4,1.7c-0.4,0.5-0.9,1-1.4,1.4
		c0.2,0.4,0.5,0.8,0.9,1.2c0.3,0.4,0.7,0.9,1.1,1.3c0.4,0.3,0.8,0.7,1.2,1c0.4,0.3,0.8,0.6,1.2,0.8c0.4,0.2,0.9,0.4,1.3,0.5
		c0.4,0.1,0.9,0.2,1.3,0.2c0.5,0,1-0.1,1.5-0.3c0.5-0.2,1-0.5,1.5-0.9c0.5-0.3,1-0.9,1.6-1.7c0.6-0.8,1.1-1.5,1.5-2.2L666,55.2z
		 M625.5,50.9c0.2,0.9,0.4,1.6,0.8,2.3c0.2,0.5,0.5,1,0.9,1.7c0.4,0.6,0.7,1.1,0.9,1.3c0.5,0.4,1,0.9,1.5,1.3c0.6,0.4,1.1,0.8,1.6,1
		c0.7,0.3,1.4,0.5,2.3,0.7c0.8,0.2,1.6,0.3,2.3,0.3c0.8,0,1.5,0,2.3-0.1c0.8-0.1,1.5-0.3,2.2-0.6c0.5-0.2,1.1-0.5,1.7-0.8
		c0.6-0.3,1.1-0.6,1.7-0.9c0.5-0.3,1-0.7,1.5-1.1c0.5-0.4,0.9-0.7,1.1-0.9l-12.2-17.9c-0.8,0.4-1.5,0.8-2.1,1.2
		c-0.6,0.4-1.2,0.8-1.8,1.3c-0.6,0.4-1.2,0.9-1.7,1.5c-0.5,0.6-1,1.2-1.4,1.8c-0.5,0.7-0.9,1.6-1.3,2.7c-0.4,1.1-0.5,1.9-0.5,2.5
		C625.2,49.1,625.3,50.1,625.5,50.9z M632,24.6c0.1,0.6,0.3,1.2,0.5,1.8c0.2,0.6,0.4,1.2,0.7,1.9c0.3,0.6,0.6,1.3,1.1,1.9
		c0.2,0.6,0.5,1.1,0.8,1.5s0.6,0.9,1,1.4c0.6-0.3,1.2-0.7,1.9-1.2c0.6-0.5,1.2-0.9,1.7-1.4c0.3-0.3,0.6-0.8,1.1-1.4
		c0.4-0.6,0.7-1.2,0.9-1.7c0.2-0.5,0.4-1.1,0.5-1.8c0.1-0.7,0.1-1.3,0.1-1.9c0-0.7,0-1.5-0.1-2.4c-0.1-0.9-0.3-1.8-0.6-2.5
		c-0.2-0.6-0.5-1.1-0.8-1.5c-0.3-0.5-0.7-0.8-1.2-1c-0.3-0.2-0.7-0.4-1.2-0.5c-0.5-0.1-0.9-0.2-1.2-0.2c-0.5,0-1,0.1-1.5,0.3
		c-0.5,0.2-0.9,0.4-1.3,0.7c-0.3,0.2-0.6,0.6-0.9,1c-0.3,0.5-0.6,0.9-0.8,1.5c-0.2,0.5-0.4,1.1-0.5,1.7c-0.1,0.7-0.2,1.4-0.2,2.2
		C631.8,23.4,631.9,24,632,24.6z"/>
	<path d="M726.3,24.1l-1.7,0.6c-0.6-1.2-1.3-2.3-1.9-3.5c-0.6-1.2-1.3-2.3-2.1-3.3c-0.6-1-1.4-1.9-2.2-2.7c-0.8-0.8-1.5-1.5-2.1-1.8
		c-1.1-0.7-2.2-1.3-3.4-1.7c-1.2-0.4-2.4-0.6-3.5-0.6c-1,0-2,0.2-3.1,0.6c-1.1,0.4-2.1,0.9-2.9,1.6c-0.4,0.4-0.9,0.9-1.4,1.6
		c-0.5,0.7-0.9,1.4-1.2,2.1c-0.3,0.7-0.5,1.5-0.6,2.4c-0.1,0.9-0.2,1.6-0.2,2.2c0,1,0.2,2,0.5,3c0.3,1,0.7,1.8,1.2,2.5
		c0.5,0.7,1.3,1.4,2.3,2.1c1,0.7,1.9,1.2,2.8,1.6c1.1,0.5,2.2,0.9,3.4,1.4c1.2,0.5,2.2,0.9,3.1,1.2c1,0.3,2.1,0.7,3.3,1.2
		c1.2,0.5,2.3,1,3.2,1.5c1.1,0.6,2.1,1.3,3.1,1.9c1,0.7,1.8,1.5,2.4,2.4c0.7,1,1.2,2.3,1.6,3.8c0.4,1.5,0.6,3,0.6,4.3
		c0,1-0.2,2.2-0.6,3.8c-0.4,1.6-0.9,2.8-1.6,3.9c-0.6,1-1.5,1.9-2.5,2.8c-1,0.9-2,1.7-3,2.3c-1,0.6-2.1,1-3.5,1.4
		c-1.4,0.3-2.8,0.5-4.1,0.5c-0.8,0-1.8-0.1-3.2-0.4c-1.4-0.3-2.6-0.6-3.7-1c-0.9-0.4-1.8-0.7-2.5-0.9c-0.8-0.2-1.3-0.3-1.5-0.3
		c-0.3,0-0.9,0.2-1.7,0.6c-0.8,0.4-1.4,0.9-1.9,1.3l-4.9-15.5l1.9-0.6c1.1,2.2,2.4,4.2,3.8,6.3c1.4,2,2.9,3.6,4.4,4.9
		c1.1,0.8,2.5,1.5,4.1,2.2c1.6,0.6,3.1,0.9,4.5,0.9c1,0,2.1-0.1,3.2-0.4c1.1-0.2,2-0.6,2.6-0.9c0.7-0.4,1.4-0.9,2.1-1.7
		c0.7-0.7,1.2-1.5,1.7-2.2c0.5-0.8,0.9-1.7,1.1-2.7c0.2-1,0.3-1.9,0.3-2.8c0-1-0.1-1.9-0.3-2.8c-0.2-0.9-0.6-1.8-1-2.5
		c-0.5-0.8-1-1.4-1.7-2c-0.6-0.6-1.3-1.1-2.2-1.6c-0.6-0.4-1.5-0.8-2.7-1.3c-1.2-0.5-2.2-0.9-2.9-1.2c-0.9-0.4-2.1-0.9-3.4-1.5
		c-1.4-0.6-2.6-1.2-3.7-1.7c-1-0.5-2.1-1.1-3.3-1.9c-1.3-0.8-2.4-1.7-3.3-2.8c-0.8-1-1.4-2.2-1.8-3.6c-0.5-1.4-0.7-2.7-0.7-3.9
		c0-0.9,0.1-1.9,0.3-3.1c0.2-1.2,0.5-2.2,0.8-3c0.4-1,0.8-1.8,1.2-2.5c0.4-0.7,1-1.4,1.8-2.1c0.6-0.6,1.3-1.2,2.2-1.7
		c0.9-0.5,1.8-0.9,2.8-1.2c0.7-0.2,1.5-0.4,2.6-0.5c1.1-0.1,1.9-0.1,2.3-0.1c0.9,0,1.9,0.1,3.1,0.4c1.1,0.3,2.1,0.6,3,1.1
		c0.8,0.4,1.6,0.8,2.3,1.2c0.7,0.4,1.2,0.6,1.4,0.6c0.3,0,0.8-0.3,1.5-0.8c0.6-0.5,1.2-1,1.7-1.5L726.3,24.1z"/>
	<path d="M771.7,9.9l2.4,13.1h-2c-0.3-0.6-0.6-1.3-1-2c-0.4-0.7-0.7-1.4-1.1-2.1c-0.3-0.6-0.7-1.3-1.2-2c-0.5-0.7-0.9-1.3-1.3-1.8
		c-0.5-0.5-1-0.9-1.6-1.3c-0.6-0.4-1.2-0.7-1.8-0.9c-0.5-0.2-1.1-0.3-1.8-0.5c-0.7-0.1-1.4-0.2-1.9-0.2h-1.1c-0.3,0-0.7,0-1.1,0.1
		c-0.4,0-0.8,0.1-1,0.2c-0.3,0.1-0.6,0.3-0.9,0.5c-0.3,0.2-0.6,0.4-0.8,0.7c-0.2,0.2-0.4,0.6-0.5,1c-0.1,0.4-0.2,0.8-0.2,1.3v39.5
		c0,0.3,0,0.6,0.1,1c0.1,0.4,0.1,0.7,0.2,0.9c0.1,0.2,0.3,0.5,0.5,0.7c0.2,0.2,0.3,0.4,0.4,0.5c0.2,0.1,0.5,0.3,0.7,0.4
		c0.2,0.1,0.5,0.2,0.8,0.3c0.4,0,1,0.1,1.9,0.2c0.9,0.1,1.5,0.1,1.9,0.1v2.4h-17.9v-2.4c0.3,0,1,0,1.9-0.1c0.9-0.1,1.6-0.1,1.9-0.2
		c0.3-0.1,0.6-0.2,0.8-0.3c0.3-0.1,0.5-0.2,0.7-0.4c0.1-0.1,0.2-0.3,0.4-0.5c0.2-0.2,0.3-0.5,0.4-0.7c0.1-0.2,0.2-0.5,0.2-0.9
		c0-0.4,0.1-0.7,0.1-1V16c0-0.4-0.1-0.9-0.2-1.3c-0.1-0.4-0.3-0.7-0.5-1c-0.2-0.2-0.4-0.5-0.8-0.7c-0.3-0.2-0.6-0.4-1-0.5
		c-0.3-0.1-0.6-0.2-1-0.2c-0.4,0-0.8-0.1-1.1-0.1h-1.1c-0.5,0-1.2,0.1-1.9,0.2c-0.7,0.1-1.4,0.3-1.8,0.5c-0.6,0.2-1.2,0.6-1.8,0.9
		c-0.6,0.4-1.1,0.8-1.6,1.3c-0.4,0.5-0.9,1.1-1.3,1.8c-0.4,0.7-0.8,1.4-1.2,2c-0.3,0.7-0.7,1.4-1.1,2.1c-0.4,0.7-0.7,1.4-1,2h-2
		l2.4-13.1H771.7z"/>
	<path d="M788.3,42.5l-4.1,13.1c-0.1,0.4-0.2,0.8-0.3,1.2c-0.1,0.4-0.1,0.8-0.1,1c0,0.2,0.1,0.5,0.2,0.7c0.1,0.2,0.3,0.4,0.5,0.5
		c0.2,0.2,0.5,0.3,0.9,0.4c0.3,0.1,0.6,0.1,0.9,0.2c0.3,0,0.7,0.1,1.2,0.1c0.5,0,1,0,1.7,0v2.2h-14.3v-2.2c0.5,0,0.9,0,1.4-0.1
		c0.4,0,0.8-0.1,1.1-0.1c0.3-0.1,0.7-0.2,1-0.4c0.4-0.2,0.7-0.3,0.9-0.5c0.2-0.2,0.5-0.5,0.6-0.8c0.2-0.3,0.4-0.6,0.6-0.9
		c0.1-0.2,0.3-0.5,0.4-0.9c0.1-0.3,0.3-0.7,0.4-1.1L796,8.8h3.3l15.3,46.9c0.1,0.3,0.3,0.7,0.6,1.2c0.2,0.5,0.5,0.8,0.6,1.1
		c0.2,0.3,0.5,0.6,0.8,0.8c0.3,0.2,0.6,0.5,0.9,0.6c0.3,0.1,0.8,0.2,1.3,0.3c0.6,0,1,0.1,1.5,0.1v2.2h-15.7v-2.2
		c0.4,0,1.1,0,1.9-0.1c0.8,0,1.4-0.1,1.7-0.1c0.3-0.1,0.7-0.2,1-0.4s0.5-0.5,0.5-1c0-0.3,0-0.6-0.1-1.1c-0.1-0.4-0.2-0.9-0.4-1.4
		l-4.2-13.1H788.3z M796.7,16.2L789.2,40h15.1L796.7,16.2z"/>
	<path d="M846.6,55.5c0,0.3,0,0.6,0.1,1c0.1,0.4,0.1,0.7,0.2,0.9c0.1,0.2,0.3,0.5,0.5,0.7s0.3,0.4,0.4,0.5c0.2,0.1,0.5,0.3,0.7,0.4
		c0.2,0.1,0.5,0.2,0.8,0.3c0.4,0,1,0.1,1.7,0.2c0.8,0.1,1.3,0.1,1.7,0.1v2.4h-17v-2.4c0.3,0,0.9,0,1.7-0.1c0.8-0.1,1.4-0.1,1.7-0.2
		c0.3-0.1,0.6-0.2,0.8-0.3c0.3-0.1,0.5-0.2,0.7-0.4c0.1-0.1,0.2-0.3,0.4-0.5c0.2-0.2,0.3-0.5,0.4-0.7c0.1-0.2,0.2-0.5,0.2-0.9
		c0-0.4,0.1-0.7,0.1-1V41.1l-13.5-25.8c-0.3-0.4-0.6-0.8-1-1.3c-0.4-0.5-0.8-0.8-1.3-1c-0.5-0.2-1.2-0.4-2.1-0.5
		c-0.9-0.1-1.6-0.1-2.2-0.1V9.9h17.6v2.4c-0.8,0-1.7,0-2.7,0.1c-1,0.1-1.6,0.2-1.9,0.3c-0.2,0.1-0.5,0.2-0.7,0.4
		c-0.2,0.2-0.3,0.4-0.3,0.6c0,0.2,0,0.4,0.1,0.8c0.1,0.3,0.2,0.7,0.4,1l11.3,21.8l11.8-21.9c0.2-0.3,0.3-0.6,0.5-0.9
		c0.1-0.3,0.2-0.6,0.2-0.8c0-0.2-0.1-0.4-0.2-0.6c-0.1-0.2-0.3-0.3-0.6-0.4c-0.3-0.1-1-0.2-2.1-0.3c-1.1-0.1-2.1-0.1-3-0.1V9.9h15.6
		v2.4c-0.6,0-1.4,0-2.2,0.1c-0.9,0.1-1.6,0.3-2.1,0.5c-0.5,0.2-0.9,0.5-1.3,1c-0.4,0.5-0.8,0.9-1.1,1.3l-14.3,26.1V55.5z"/>
</g>
</svg>
