<svg xmlns="http://www.w3.org/2000/svg"
     xmlns:xlink="http://www.w3.org/1999/xlink"
     viewBox="0,0,255.99213,255.99213" width="35px" height="35px" fill-rule="nonzero"><g transform=""><g fill="none" fill-rule="nonzero" stroke="#000000" stroke-width="2" stroke-linecap="round" stroke-linejoin="round" stroke-miterlimit="10" stroke-dasharray="" stroke-dashoffset="0" font-family="none" font-weight="none" font-size="none" text-anchor="none" style="mix-blend-mode: normal"><g transform="translate(-54.04368,141.58304) rotate(-45) scale(4,4) skewX(0)"><path d="M38.872,60.369c1.903,-1.494 3.185,-3.742 3.4,-6.294c3.882,-0.251 6.956,-3.471 6.956,-7.417c0,-4.11 -3.332,-7.441 -7.441,-7.441c-1.661,0 -3.194,0.544 -4.432,1.463c-0.578,-0.957 -1.355,-2.201 -1.355,-4.03v-11.935v-2.363l5.516,-0.007c3.445,0 2.92,-4.756 -0.081,-4.756h-2.865c-3.23,0 -3.23,-5 0,-5h2.994c3.378,0 3.378,-4.787 -0.034,-4.787c-1.801,0 -3.091,0.002 -5.364,0.002c-0.182,-4.926 -6.166,-4.511 -6.166,-0.242v29.376c0,1.636 -0.772,3.328 -1.312,3.996c-1.289,-1.072 -2.945,-1.717 -4.753,-1.717c-4.11,0 -7.441,3.332 -7.441,7.441c0,4.017 3.185,7.281 7.166,7.427c0.343,4.013 3.474,7.77 7.193,8.025c6.118,0.42 6.239,-7.405 2.515,-8.011c-3.004,-0.489 -3.913,3.004 -2.306,4.053"></path></g></g></g></svg>